<svg width="53" height="54" viewBox="0 0 53 54" fill="none" xmlns="http://www.w3.org/2000/svg">
<g clip-path="url(#clip0_231_31999)">
<rect width="48" height="48" rx="24" fill="#9757D7"/>
<rect x="-0.671875" y="-11" width="49.3394" height="74"/>
</g>
<path d="M31.1077 48.0207L31.6077 47.1547L31.1077 48.0207L37.5 51.7113C39.047 52.6045 40.953 52.6045 42.5 51.7113L48.8923 48.0207C50.4393 47.1276 51.3923 45.4769 51.3923 43.6906V36.3094C51.3923 34.5231 50.4393 32.8724 48.8923 31.9793L42.5 28.2887C40.953 27.3955 39.047 27.3955 37.5 28.2887L31.1077 31.9793C29.5607 32.8724 28.6077 34.5231 28.6077 36.3094V43.6906C28.6077 45.4769 29.5607 47.1276 31.1077 48.0207Z" fill="#45B36B" stroke="#23262F" stroke-width="2"/>
<path d="M39.1029 35.5632C39.2075 35.3802 39.0527 35.1579 38.8448 35.1926L37.8731 35.3545C37.7245 35.3793 37.6314 35.5287 37.6747 35.6729L37.9774 36.6818C38.0405 36.8923 38.3249 36.9248 38.4339 36.734L39.1029 35.5632Z" fill="#23262F"/>
<path d="M36.8142 36.296C36.7585 36.1102 36.5224 36.0567 36.3958 36.2037C36.0033 36.6594 35.6325 37.1383 35.2486 37.599C35.2272 37.6246 35.2068 37.6508 35.1874 37.6775C35.0833 37.8206 35.2016 38.0002 35.3786 38.0002H36.9895C37.1569 38.0002 37.277 37.8388 37.2289 37.6784L36.8142 36.296Z" fill="#23262F"/>
<path d="M35.3092 39C35.141 39 35.0216 39.1639 35.1058 39.3095C35.1328 39.3562 35.1626 39.4018 35.1951 39.4461L38.7917 44.3506C38.8518 44.4326 38.9182 44.5064 38.9896 44.5719C39.1449 44.7145 39.3396 44.5502 39.2775 44.3487L37.6836 39.1764C37.6513 39.0715 37.5544 39 37.4447 39H35.3092Z" fill="#23262F"/>
<path d="M40.7228 44.3488C40.6607 44.5503 40.8553 44.7147 41.0106 44.5721C41.0821 44.5065 41.1485 44.4327 41.2087 44.3506L44.8053 39.4461C44.8378 39.4018 44.8676 39.3562 44.8946 39.3095C44.9788 39.1639 44.8594 39 44.6912 39H42.5557C42.4459 39 42.349 39.0715 42.3167 39.1764L40.7228 44.3488Z" fill="#23262F"/>
<path d="M44.6189 37.9998C44.7959 37.9998 44.9142 37.8202 44.8101 37.6771C44.7907 37.6504 44.7703 37.6242 44.7489 37.5986C44.365 37.1378 43.9942 36.659 43.6016 36.2032C43.475 36.0562 43.239 36.1097 43.1833 36.2955L42.7685 37.678C42.7204 37.8384 42.8405 37.9998 43.008 37.9998H44.6189Z" fill="#23262F"/>
<path d="M42.1307 35.3545C42.2792 35.3793 42.3723 35.5287 42.329 35.673L42.0263 36.6819C41.9632 36.8924 41.6788 36.9249 41.5698 36.7341L40.9007 35.5632C40.7962 35.3802 40.951 35.1579 41.1589 35.1926L42.1307 35.3545Z" fill="#23262F"/>
<path d="M39.997 36.0078L40.9217 37.626C41.017 37.7927 40.8966 38 40.7047 38H39.2894C39.0975 38 38.9771 37.7927 39.0724 37.626L39.997 36.0078Z" fill="#23262F"/>
<path d="M40.2393 42.5232C40.1669 42.7586 39.8338 42.7586 39.7614 42.5232L38.7769 39.3235C38.7274 39.1628 38.8476 39 39.0158 39H40.9849C41.1531 39 41.2733 39.1628 41.2238 39.3235L40.2393 42.5232Z" fill="#23262F"/>
<defs>
<clipPath id="clip0_231_31999">
<rect width="48" height="48" rx="24" fill="white"/>
</clipPath>
</defs>
</svg>
