<svg width="32" height="33" viewBox="0 0 32 33" fill="none" xmlns="http://www.w3.org/2000/svg">
<path fill-rule="evenodd" clip-rule="evenodd" d="M15.9974 27.1665C21.8884 27.1665 26.6641 22.3909 26.6641 16.4998C26.6641 10.6088 21.8884 5.83317 15.9974 5.83317C10.1064 5.83317 5.33073 10.6088 5.33073 16.4998C5.33073 22.3909 10.1064 27.1665 15.9974 27.1665ZM15.9974 29.8332C23.3612 29.8332 29.3307 23.8636 29.3307 16.4998C29.3307 9.13604 23.3612 3.1665 15.9974 3.1665C8.6336 3.1665 2.66406 9.13604 2.66406 16.4998C2.66406 23.8636 8.6336 29.8332 15.9974 29.8332Z" fill="#EF466F"/>
<path fill-rule="evenodd" clip-rule="evenodd" d="M15.9974 9.8335C15.261 9.8335 14.6641 10.4304 14.6641 11.1668C14.6641 11.9032 15.261 12.5002 15.9974 12.5002C16.7338 12.5002 17.3307 11.9032 17.3307 11.1668C17.3307 10.4304 16.7338 9.8335 15.9974 9.8335ZM15.9974 15.1668C15.261 15.1668 14.6641 15.7638 14.6641 16.5002V21.8335C14.6641 22.5699 15.261 23.1668 15.9974 23.1668C16.7338 23.1668 17.3307 22.5699 17.3307 21.8335V16.5002C17.3307 15.7638 16.7338 15.1668 15.9974 15.1668Z" fill="#EF466F"/>
</svg>
