<svg width="48" height="48" viewBox="0 0 48 48" fill="none" xmlns="http://www.w3.org/2000/svg">
<rect width="48" height="48" rx="24" fill="#353945"/>
<path fill-rule="evenodd" clip-rule="evenodd" d="M14.0189 30.3979L14.7435 27.1369C14.9085 26.3943 15.2819 25.7142 15.8198 25.1762L25.6678 15.3283C27.2298 13.7662 29.7625 13.7662 31.3246 15.3283L32.6678 16.6715C34.2299 18.2336 34.2299 20.7662 32.6678 22.3283L22.8198 32.1762C22.2819 32.7142 21.6017 33.0875 20.8591 33.2526L17.5982 33.9772C15.4547 34.4535 13.5425 32.5414 14.0189 30.3979ZM16.6959 27.5708L15.9712 30.8317C15.8125 31.5462 16.4498 32.1836 17.1643 32.0248L20.4253 31.3002C20.7824 31.2208 21.1106 31.0451 21.3744 30.7925L17.2035 26.6216C16.9509 26.8855 16.7752 27.2137 16.6959 27.5708ZM18.6174 25.2071L22.789 29.3787L28.3748 23.7929L24.2032 19.6213L18.6174 25.2071ZM31.2535 20.9141L29.789 22.3787L25.6174 18.2071L27.082 16.7425C27.863 15.9615 29.1293 15.9615 29.9104 16.7425L31.2535 18.0857C32.0346 18.8667 32.0346 20.133 31.2535 20.9141Z" fill="#777E91"/>
</svg>
