<svg width="48" height="48" viewBox="0 0 48 48" fill="none" xmlns="http://www.w3.org/2000/svg">
<path fill-rule="evenodd" clip-rule="evenodd" d="M20.9986 22.0401C21.028 22.5916 20.6047 23.0625 20.0532 23.0919C19.3005 23.132 18.7044 23.1811 18.2385 23.2302C17.6129 23.2962 17.2328 23.6805 17.1696 24.2333C17.0789 25.0269 17 26.2279 17 28.0002C17 29.7724 17.0789 30.9735 17.1696 31.7671C17.2329 32.3208 17.6121 32.7041 18.2368 32.77C19.3308 32.8855 21.1392 33.0002 24 33.0002C26.8608 33.0002 28.6692 32.8855 29.7632 32.77C30.3879 32.7041 30.7671 32.3208 30.8304 31.7671C30.9211 30.9735 31 29.7724 31 28.0002C31 26.2279 30.9211 25.0269 30.8304 24.2333C30.7672 23.6805 30.3871 23.2962 29.7615 23.2302C29.2956 23.1811 28.6995 23.132 27.9468 23.0919C27.3953 23.0625 26.972 22.5916 27.0014 22.0401C27.0308 21.4886 27.5017 21.0653 28.0532 21.0947C28.8361 21.1364 29.4669 21.1881 29.9712 21.2412C31.4556 21.3978 32.6397 22.4509 32.8175 24.0061C32.9188 24.8925 33 26.1717 33 28.0002C33 29.8287 32.9188 31.1079 32.8175 31.9943C32.6398 33.5486 31.4585 34.6022 29.9732 34.7589C28.7919 34.8836 26.9108 35.0002 24 35.0002C21.0892 35.0002 19.2081 34.8836 18.0268 34.7589C16.5415 34.6022 15.3602 33.5486 15.1825 31.9943C15.0812 31.1079 15 29.8287 15 28.0002C15 26.1717 15.0812 24.8925 15.1825 24.0061C15.3603 22.4509 16.5444 21.3978 18.0288 21.2412C18.5331 21.1881 19.1639 21.1364 19.9468 21.0947C20.4983 21.0653 20.9692 21.4886 20.9986 22.0401Z" fill="#777E91"/>
<path fill-rule="evenodd" clip-rule="evenodd" d="M21.2071 18.2071C20.8166 18.5976 20.1834 18.5976 19.7929 18.2071C19.4024 17.8166 19.4024 17.1834 19.7929 16.7929L23.2929 13.2929C23.6834 12.9024 24.3166 12.9024 24.7071 13.2929L28.2071 16.7929C28.5976 17.1834 28.5976 17.8166 28.2071 18.2071C27.8166 18.5976 27.1834 18.5976 26.7929 18.2071L25 16.4142V26C25 26.5523 24.5523 27 24 27C23.4477 27 23 26.5523 23 26V16.4142L21.2071 18.2071Z" fill="#777E91"/>
<rect x="1" y="1" width="46" height="46" rx="23" stroke="#353945" stroke-width="2"/>
</svg>
