<svg width="48" height="48" viewBox="0 0 48 48" fill="none" xmlns="http://www.w3.org/2000/svg">
<path fill-rule="evenodd" clip-rule="evenodd" d="M15.181 25.9998C13.5273 26.0045 12.4598 27.8884 13.4786 29.3157C14.9376 31.3596 17.5833 33 22.0003 33C28.8454 33 34.34 27.4217 33.5708 20.8311L34.6977 18.5773C35.4792 17.0143 34.1212 15.2362 32.4076 15.5789L30.9188 15.8767C30.5241 15.6684 30.1156 15.5113 29.7665 15.3974C29.0861 15.1755 28.2626 15 27.5003 15C26.131 15 24.9492 15.3513 24.01 16.0559C23.0815 16.7526 22.5585 17.6682 22.2715 18.509C22.1392 18.8966 22.0511 19.2853 21.9946 19.6584C21.4633 19.4912 20.9216 19.2663 20.3913 18.9915C19.1881 18.3683 18.2151 17.5782 17.6663 16.8855C16.7455 15.7233 14.794 15.8095 14.1092 17.3202C13.1441 19.4495 13.4089 21.9735 14.2764 24.0129C14.5672 24.6964 14.9454 25.3721 15.4075 25.9983C15.3284 25.9992 15.2527 25.9996 15.181 25.9998ZM22.0002 31C18.1369 31 16.1392 29.6007 15.1063 28.1537C15.0599 28.0887 15.1067 28 15.1865 27.9998C16.2374 27.9968 18.3944 27.9471 19.817 27.1145C19.8906 27.0714 19.8744 26.9629 19.7936 26.9358C16.4774 25.8208 14.5924 21.0986 15.9307 18.1459C15.9614 18.0782 16.0524 18.0693 16.0986 18.1275C17.6275 20.0572 20.9703 21.9472 23.8786 21.9989C23.9417 22 23.9894 21.9427 23.9798 21.8803C23.8626 21.1205 23.4151 17 27.5002 17C28.4757 17 29.9271 17.4758 30.4617 17.9633C30.4864 17.9858 30.5199 17.9961 30.5527 17.9895L32.7997 17.5401C32.8813 17.5238 32.946 17.6084 32.9088 17.6829L31.5151 20.4702C31.5054 20.4895 31.5024 20.5118 31.5061 20.5331C32.4822 26.02 27.9882 31 22.0002 31Z" fill="#777E91"/>
<rect x="1" y="1" width="46" height="46" rx="23" stroke="#353945" stroke-width="2"/>
</svg>
