<svg width="32" height="33" viewBox="0 0 32 33" fill="none" xmlns="http://www.w3.org/2000/svg">
<path fill-rule="evenodd" clip-rule="evenodd" d="M15.9993 27.1667C21.8904 27.1667 26.666 22.391 26.666 16.5C26.666 10.609 21.8904 5.83332 15.9993 5.83332C10.1083 5.83332 5.33268 10.609 5.33268 16.5C5.33268 22.391 10.1083 27.1667 15.9993 27.1667ZM15.9993 29.8333C23.3631 29.8333 29.3327 23.8638 29.3327 16.5C29.3327 9.13619 23.3631 3.16666 15.9993 3.16666C8.63555 3.16666 2.66602 9.13619 2.66602 16.5C2.66602 23.8638 8.63555 29.8333 15.9993 29.8333Z" fill="#EF466F"/>
<path fill-rule="evenodd" clip-rule="evenodd" d="M15.9993 9.83334C15.263 9.83334 14.666 10.4303 14.666 11.1667C14.666 11.9031 15.263 12.5 15.9993 12.5C16.7357 12.5 17.3327 11.9031 17.3327 11.1667C17.3327 10.4303 16.7357 9.83334 15.9993 9.83334ZM15.9993 15.1667C15.263 15.1667 14.666 15.7636 14.666 16.5V21.8333C14.666 22.5697 15.263 23.1667 15.9993 23.1667C16.7357 23.1667 17.3327 22.5697 17.3327 21.8333V16.5C17.3327 15.7636 16.7357 15.1667 15.9993 15.1667Z" fill="#EF466F"/>
</svg>
