<svg width="717" height="815" viewBox="0 0 717 815" fill="none" xmlns="http://www.w3.org/2000/svg">
<path d="M446.274 675.564C446.274 698.683 431.111 729.002 411.782 740.751L358.348 775.24C308.699 805.938 239.721 771.45 239.721 710.052V507.291C239.721 480.382 224.561 445.893 209.022 426.944L63.4873 273.83C44.1586 254.501 29 220.392 29 197.273V109.346C29 63.4881 63.4892 29 105.558 29H611.133C653.201 29 687.694 63.4881 687.694 105.556V189.693C687.694 220.392 668.365 258.671 649.415 277.62" stroke="white" stroke-width="56.8492" stroke-miterlimit="10" stroke-linecap="round" stroke-linejoin="round"/>
<path d="M512.594 578.916C579.574 578.916 633.873 524.617 633.873 457.638C633.873 390.658 579.574 336.359 512.594 336.359C445.615 336.359 391.316 390.658 391.316 457.638C391.316 524.617 445.615 578.916 512.594 578.916Z" stroke="white" stroke-width="56.8492" stroke-linecap="round" stroke-linejoin="round"/>
<path d="M656.612 601.655L618.713 563.756" stroke="white" stroke-width="56.8492" stroke-linecap="round" stroke-linejoin="round"/>
</svg>
