<svg width="160" height="124" viewBox="0 0 160 124" fill="none" xmlns="http://www.w3.org/2000/svg">
<rect width="160" height="124" rx="16" fill="#23262F"/>
<rect x="24" y="24" width="32" height="32" rx="16" fill="#EF466F"/>
<path d="M29.39 81.168C28.4007 81.168 27.5513 80.958 26.842 80.538C26.1327 80.1087 25.5867 79.516 25.204 78.76C24.8213 77.9947 24.63 77.1127 24.63 76.114C24.63 75.1153 24.8213 74.2333 25.204 73.468C25.5867 72.7027 26.1327 72.1053 26.842 71.676C27.5513 71.2467 28.4007 71.032 29.39 71.032C30.566 71.032 31.5273 71.326 32.274 71.914C33.03 72.4927 33.5013 73.3093 33.688 74.364H31.714C31.5927 73.832 31.3313 73.4167 30.93 73.118C30.538 72.81 30.0153 72.656 29.362 72.656C28.4567 72.656 27.7473 72.964 27.234 73.58C26.7207 74.196 26.464 75.0407 26.464 76.114C26.464 77.1873 26.7207 78.032 27.234 78.648C27.7473 79.2547 28.4567 79.558 29.362 79.558C30.0153 79.558 30.538 79.418 30.93 79.138C31.3313 78.8487 31.5927 78.452 31.714 77.948H33.688C33.5013 78.956 33.03 79.7447 32.274 80.314C31.5273 80.8833 30.566 81.168 29.39 81.168ZM35.2323 81V74.056H36.8283L36.9963 75.358C37.2483 74.91 37.5889 74.5553 38.0183 74.294C38.4569 74.0233 38.9703 73.888 39.5583 73.888V75.778H39.0543C38.6623 75.778 38.3123 75.8387 38.0043 75.96C37.6963 76.0813 37.4536 76.2913 37.2763 76.59C37.1083 76.8887 37.0243 77.304 37.0243 77.836V81H35.2323ZM41.651 84.08L43.261 80.538H42.841L40.139 74.056H42.085L44.031 78.942L46.061 74.056H47.965L43.555 84.08H41.651ZM49.1366 84.08V74.056H50.7326L50.9286 75.05C51.1526 74.742 51.4466 74.4713 51.8106 74.238C52.1839 74.0047 52.6646 73.888 53.2526 73.888C53.9059 73.888 54.4892 74.0467 55.0026 74.364C55.5159 74.6813 55.9219 75.1153 56.2206 75.666C56.5192 76.2167 56.6686 76.842 56.6686 77.542C56.6686 78.242 56.5192 78.8673 56.2206 79.418C55.9219 79.9593 55.5159 80.3887 55.0026 80.706C54.4892 81.014 53.9059 81.168 53.2526 81.168C52.7299 81.168 52.2726 81.07 51.8806 80.874C51.4886 80.678 51.1712 80.4027 50.9286 80.048V84.08H49.1366ZM52.8746 79.6C53.4439 79.6 53.9152 79.4087 54.2886 79.026C54.6619 78.6433 54.8486 78.1487 54.8486 77.542C54.8486 76.9353 54.6619 76.436 54.2886 76.044C53.9152 75.652 53.4439 75.456 52.8746 75.456C52.2959 75.456 51.8199 75.652 51.4466 76.044C51.0826 76.4267 50.9006 76.9213 50.9006 77.528C50.9006 78.1347 51.0826 78.634 51.4466 79.026C51.8199 79.4087 52.2959 79.6 52.8746 79.6ZM61.0899 81C60.3619 81 59.7786 80.8227 59.3399 80.468C58.9013 80.1133 58.6819 79.4833 58.6819 78.578V75.554H57.4919V74.056H58.6819L58.8919 72.194H60.4739V74.056H62.3499V75.554H60.4739V78.592C60.4739 78.928 60.5439 79.1613 60.6839 79.292C60.8333 79.4133 61.0853 79.474 61.4399 79.474H62.3079V81H61.0899ZM67.0428 81.168C66.3708 81.168 65.7641 81.014 65.2228 80.706C64.6908 80.398 64.2661 79.9733 63.9488 79.432C63.6408 78.8813 63.4868 78.2467 63.4868 77.528C63.4868 76.8093 63.6454 76.1793 63.9628 75.638C64.2801 75.0873 64.7048 74.658 65.2368 74.35C65.7781 74.042 66.3848 73.888 67.0568 73.888C67.7194 73.888 68.3168 74.042 68.8488 74.35C69.3901 74.658 69.8148 75.0873 70.1228 75.638C70.4401 76.1793 70.5988 76.8093 70.5988 77.528C70.5988 78.2467 70.4401 78.8813 70.1228 79.432C69.8148 79.9733 69.3901 80.398 68.8488 80.706C68.3074 81.014 67.7054 81.168 67.0428 81.168ZM67.0428 79.614C67.5094 79.614 67.9154 79.4413 68.2608 79.096C68.6061 78.7413 68.7788 78.2187 68.7788 77.528C68.7788 76.8373 68.6061 76.3193 68.2608 75.974C67.9154 75.6193 67.5141 75.442 67.0568 75.442C66.5808 75.442 66.1701 75.6193 65.8248 75.974C65.4888 76.3193 65.3208 76.8373 65.3208 77.528C65.3208 78.2187 65.4888 78.7413 65.8248 79.096C66.1701 79.4413 66.5761 79.614 67.0428 79.614ZM75.579 81V71.2H77.371V79.6H81.711V81H75.579ZM86.3074 81.168C85.6074 81.168 84.9868 81.0187 84.4454 80.72C83.9041 80.4213 83.4794 80.0013 83.1714 79.46C82.8634 78.9187 82.7094 78.2933 82.7094 77.584C82.7094 76.8653 82.8588 76.226 83.1574 75.666C83.4654 75.106 83.8854 74.672 84.4174 74.364C84.9588 74.0467 85.5934 73.888 86.3214 73.888C87.0028 73.888 87.6048 74.0373 88.1274 74.336C88.6501 74.6347 89.0561 75.0453 89.3454 75.568C89.6441 76.0813 89.7934 76.6553 89.7934 77.29C89.7934 77.3927 89.7888 77.5 89.7794 77.612C89.7794 77.724 89.7748 77.8407 89.7654 77.962H84.4874C84.5248 78.5033 84.7114 78.928 85.0474 79.236C85.3928 79.544 85.8081 79.698 86.2934 79.698C86.6574 79.698 86.9608 79.6187 87.2034 79.46C87.4554 79.292 87.6421 79.0773 87.7634 78.816H89.5834C89.4528 79.2547 89.2334 79.656 88.9254 80.02C88.6268 80.3747 88.2534 80.6547 87.8054 80.86C87.3668 81.0653 86.8674 81.168 86.3074 81.168ZM86.3214 75.344C85.8828 75.344 85.4954 75.47 85.1594 75.722C84.8234 75.9647 84.6088 76.338 84.5154 76.842H87.9734C87.9454 76.3847 87.7774 76.0207 87.4694 75.75C87.1614 75.4793 86.7788 75.344 86.3214 75.344ZM94.0902 78.928C93.7542 78.928 93.4416 78.8907 93.1522 78.816L92.6342 79.334C92.7929 79.418 93.0076 79.488 93.2782 79.544C93.5489 79.6 93.9876 79.656 94.5942 79.712C95.5182 79.796 96.1902 80.0153 96.6102 80.37C97.0302 80.7247 97.2402 81.2147 97.2402 81.84C97.2402 82.2507 97.1282 82.638 96.9042 83.002C96.6802 83.3753 96.3349 83.674 95.8682 83.898C95.4016 84.1313 94.8042 84.248 94.0762 84.248C93.0869 84.248 92.2889 84.0613 91.6822 83.688C91.0756 83.324 90.7722 82.7733 90.7722 82.036C90.7722 81.4107 91.0756 80.8693 91.6822 80.412C91.4956 80.328 91.3322 80.2393 91.1922 80.146C91.0616 80.0527 90.9449 79.9547 90.8422 79.852V79.53L92.0602 78.242C91.5189 77.766 91.2482 77.1547 91.2482 76.408C91.2482 75.9413 91.3602 75.5167 91.5842 75.134C91.8176 74.7513 92.1442 74.448 92.5642 74.224C92.9842 74 93.4929 73.888 94.0902 73.888C94.4822 73.888 94.8462 73.944 95.1822 74.056H97.8142V75.148L96.6242 75.232C96.8109 75.5867 96.9042 75.9787 96.9042 76.408C96.9042 76.8747 96.7922 77.2993 96.5682 77.682C96.3442 78.0647 96.0176 78.368 95.5882 78.592C95.1682 78.816 94.6689 78.928 94.0902 78.928ZM94.0902 77.556C94.4542 77.556 94.7529 77.458 94.9862 77.262C95.2289 77.066 95.3502 76.786 95.3502 76.422C95.3502 76.058 95.2289 75.778 94.9862 75.582C94.7529 75.386 94.4542 75.288 94.0902 75.288C93.7076 75.288 93.3996 75.386 93.1662 75.582C92.9329 75.778 92.8162 76.058 92.8162 76.422C92.8162 76.786 92.9329 77.066 93.1662 77.262C93.3996 77.458 93.7076 77.556 94.0902 77.556ZM92.4102 81.854C92.4102 82.1993 92.5689 82.456 92.8862 82.624C93.2129 82.8013 93.6096 82.89 94.0762 82.89C94.5242 82.89 94.8882 82.7967 95.1682 82.61C95.4482 82.4327 95.5882 82.19 95.5882 81.882C95.5882 81.63 95.4949 81.42 95.3082 81.252C95.1309 81.084 94.7716 80.9813 94.2302 80.944C93.8476 80.916 93.4929 80.874 93.1662 80.818C92.8956 80.9673 92.6996 81.1307 92.5782 81.308C92.4662 81.4853 92.4102 81.6673 92.4102 81.854ZM102.222 81.168C101.522 81.168 100.901 81.0187 100.36 80.72C99.8182 80.4213 99.3935 80.0013 99.0855 79.46C98.7775 78.9187 98.6235 78.2933 98.6235 77.584C98.6235 76.8653 98.7728 76.226 99.0715 75.666C99.3795 75.106 99.7995 74.672 100.332 74.364C100.873 74.0467 101.508 73.888 102.236 73.888C102.917 73.888 103.519 74.0373 104.042 74.336C104.564 74.6347 104.97 75.0453 105.26 75.568C105.558 76.0813 105.708 76.6553 105.708 77.29C105.708 77.3927 105.703 77.5 105.694 77.612C105.694 77.724 105.689 77.8407 105.68 77.962H100.402C100.439 78.5033 100.626 78.928 100.962 79.236C101.307 79.544 101.722 79.698 102.208 79.698C102.572 79.698 102.875 79.6187 103.118 79.46C103.37 79.292 103.556 79.0773 103.678 78.816H105.498C105.367 79.2547 105.148 79.656 104.84 80.02C104.541 80.3747 104.168 80.6547 103.72 80.86C103.281 81.0653 102.782 81.168 102.222 81.168ZM102.236 75.344C101.797 75.344 101.41 75.47 101.074 75.722C100.738 75.9647 100.523 76.338 100.43 76.842H103.888C103.86 76.3847 103.692 76.0207 103.384 75.75C103.076 75.4793 102.693 75.344 102.236 75.344ZM107.215 81V74.056H108.797L108.937 75.232C109.151 74.8213 109.459 74.4947 109.861 74.252C110.271 74.0093 110.752 73.888 111.303 73.888C112.161 73.888 112.829 74.1587 113.305 74.7C113.781 75.2413 114.019 76.0347 114.019 77.08V81H112.227V77.248C112.227 76.6507 112.105 76.1933 111.863 75.876C111.62 75.5587 111.242 75.4 110.729 75.4C110.225 75.4 109.809 75.5773 109.483 75.932C109.165 76.2867 109.007 76.7813 109.007 77.416V81H107.215ZM118.924 81.168C118.271 81.168 117.688 81.0093 117.174 80.692C116.661 80.3747 116.255 79.9407 115.956 79.39C115.658 78.8393 115.508 78.214 115.508 77.514C115.508 76.814 115.658 76.1933 115.956 75.652C116.255 75.1013 116.661 74.672 117.174 74.364C117.688 74.0467 118.271 73.888 118.924 73.888C119.447 73.888 119.904 73.986 120.296 74.182C120.688 74.378 121.006 74.6533 121.248 75.008V70.92H123.04V81H121.444L121.248 80.006C121.024 80.314 120.726 80.5847 120.352 80.818C119.988 81.0513 119.512 81.168 118.924 81.168ZM119.302 79.6C119.881 79.6 120.352 79.4087 120.716 79.026C121.09 78.634 121.276 78.1347 121.276 77.528C121.276 76.9213 121.09 76.4267 120.716 76.044C120.352 75.652 119.881 75.456 119.302 75.456C118.733 75.456 118.262 75.6473 117.888 76.03C117.515 76.4127 117.328 76.9073 117.328 77.514C117.328 78.1207 117.515 78.62 117.888 79.012C118.262 79.404 118.733 79.6 119.302 79.6ZM128.047 77.696V76.198H133.913V77.696H128.047ZM24.952 97V87.2H28.578C29.362 87.2 30.0107 87.3307 30.524 87.592C31.0373 87.8533 31.42 88.2127 31.672 88.67C31.924 89.1273 32.05 89.6407 32.05 90.21C32.05 90.7513 31.9287 91.2507 31.686 91.708C31.4433 92.156 31.0653 92.52 30.552 92.8C30.0387 93.0707 29.3807 93.206 28.578 93.206H26.744V97H24.952ZM26.744 91.75H28.466C29.0913 91.75 29.5393 91.6147 29.81 91.344C30.09 91.064 30.23 90.686 30.23 90.21C30.23 89.7247 30.09 89.3467 29.81 89.076C29.5393 88.796 29.0913 88.656 28.466 88.656H26.744V91.75ZM33.4139 97V90.056H35.0099L35.1779 91.358C35.4299 90.91 35.7706 90.5553 36.1999 90.294C36.6386 90.0233 37.1519 89.888 37.7399 89.888V91.778H37.2359C36.8439 91.778 36.4939 91.8387 36.1859 91.96C35.8779 92.0813 35.6352 92.2913 35.4579 92.59C35.2899 92.8887 35.2059 93.304 35.2059 93.836V97H33.4139ZM42.1736 97.168C41.5016 97.168 40.895 97.014 40.3536 96.706C39.8216 96.398 39.397 95.9733 39.0796 95.432C38.7716 94.8813 38.6176 94.2467 38.6176 93.528C38.6176 92.8093 38.7763 92.1793 39.0936 91.638C39.411 91.0873 39.8356 90.658 40.3676 90.35C40.909 90.042 41.5156 89.888 42.1876 89.888C42.8503 89.888 43.4476 90.042 43.9796 90.35C44.521 90.658 44.9456 91.0873 45.2536 91.638C45.571 92.1793 45.7296 92.8093 45.7296 93.528C45.7296 94.2467 45.571 94.8813 45.2536 95.432C44.9456 95.9733 44.521 96.398 43.9796 96.706C43.4383 97.014 42.8363 97.168 42.1736 97.168ZM42.1736 95.614C42.6403 95.614 43.0463 95.4413 43.3916 95.096C43.737 94.7413 43.9096 94.2187 43.9096 93.528C43.9096 92.8373 43.737 92.3193 43.3916 91.974C43.0463 91.6193 42.645 91.442 42.1876 91.442C41.7116 91.442 41.301 91.6193 40.9556 91.974C40.6196 92.3193 40.4516 92.8373 40.4516 93.528C40.4516 94.2187 40.6196 94.7413 40.9556 95.096C41.301 95.4413 41.707 95.614 42.1736 95.614ZM47.6539 97V91.554H46.7019V90.056H47.6539V89.244C47.6539 88.404 47.8639 87.8067 48.2839 87.452C48.7132 87.0973 49.2919 86.92 50.0199 86.92H50.7899V88.446H50.2999C49.9919 88.446 49.7725 88.5067 49.6419 88.628C49.5112 88.7493 49.4459 88.9547 49.4459 89.244V90.056H50.9439V91.554H49.4459V97H47.6539ZM55.4637 97.168C54.7637 97.168 54.143 97.0187 53.6017 96.72C53.0604 96.4213 52.6357 96.0013 52.3277 95.46C52.0197 94.9187 51.8657 94.2933 51.8657 93.584C51.8657 92.8653 52.015 92.226 52.3137 91.666C52.6217 91.106 53.0417 90.672 53.5737 90.364C54.115 90.0467 54.7497 89.888 55.4777 89.888C56.159 89.888 56.761 90.0373 57.2837 90.336C57.8064 90.6347 58.2124 91.0453 58.5017 91.568C58.8004 92.0813 58.9497 92.6553 58.9497 93.29C58.9497 93.3927 58.945 93.5 58.9357 93.612C58.9357 93.724 58.931 93.8407 58.9217 93.962H53.6437C53.681 94.5033 53.8677 94.928 54.2037 95.236C54.549 95.544 54.9644 95.698 55.4497 95.698C55.8137 95.698 56.117 95.6187 56.3597 95.46C56.6117 95.292 56.7984 95.0773 56.9197 94.816H58.7397C58.609 95.2547 58.3897 95.656 58.0817 96.02C57.783 96.3747 57.4097 96.6547 56.9617 96.86C56.523 97.0653 56.0237 97.168 55.4637 97.168ZM55.4777 91.344C55.039 91.344 54.6517 91.47 54.3157 91.722C53.9797 91.9647 53.765 92.338 53.6717 92.842H57.1297C57.1017 92.3847 56.9337 92.0207 56.6257 91.75C56.3177 91.4793 55.935 91.344 55.4777 91.344ZM63.3269 97.168C62.7109 97.168 62.1695 97.07 61.7029 96.874C61.2362 96.6687 60.8629 96.3887 60.5829 96.034C60.3029 95.6793 60.1349 95.2687 60.0789 94.802H61.8849C61.9409 95.0727 62.0902 95.306 62.3329 95.502C62.5849 95.6887 62.9069 95.782 63.2989 95.782C63.6909 95.782 63.9755 95.7027 64.1529 95.544C64.3395 95.3853 64.4329 95.2033 64.4329 94.998C64.4329 94.6993 64.3022 94.4987 64.0409 94.396C63.7795 94.284 63.4155 94.1767 62.9489 94.074C62.6502 94.0087 62.3469 93.9293 62.0389 93.836C61.7309 93.7427 61.4462 93.626 61.1849 93.486C60.9329 93.3367 60.7275 93.15 60.5689 92.926C60.4102 92.6927 60.3309 92.408 60.3309 92.072C60.3309 91.456 60.5735 90.938 61.0589 90.518C61.5535 90.098 62.2442 89.888 63.1309 89.888C63.9522 89.888 64.6055 90.0793 65.0909 90.462C65.5855 90.8447 65.8795 91.372 65.9729 92.044H64.2789C64.1762 91.5307 63.7889 91.274 63.1169 91.274C62.7809 91.274 62.5195 91.3393 62.3329 91.47C62.1555 91.6007 62.0669 91.764 62.0669 91.96C62.0669 92.1653 62.2022 92.3287 62.4729 92.45C62.7435 92.5713 63.1029 92.6833 63.5509 92.786C64.0362 92.898 64.4795 93.024 64.8809 93.164C65.2915 93.2947 65.6182 93.4953 65.8609 93.766C66.1035 94.0273 66.2249 94.4053 66.2249 94.9C66.2342 95.3293 66.1222 95.7167 65.8889 96.062C65.6555 96.4073 65.3195 96.678 64.8809 96.874C64.4422 97.07 63.9242 97.168 63.3269 97.168ZM70.6823 97.168C70.0663 97.168 69.525 97.07 69.0583 96.874C68.5917 96.6687 68.2183 96.3887 67.9383 96.034C67.6583 95.6793 67.4903 95.2687 67.4343 94.802H69.2403C69.2963 95.0727 69.4457 95.306 69.6883 95.502C69.9403 95.6887 70.2623 95.782 70.6543 95.782C71.0463 95.782 71.331 95.7027 71.5083 95.544C71.695 95.3853 71.7883 95.2033 71.7883 94.998C71.7883 94.6993 71.6577 94.4987 71.3963 94.396C71.135 94.284 70.771 94.1767 70.3043 94.074C70.0057 94.0087 69.7023 93.9293 69.3943 93.836C69.0863 93.7427 68.8017 93.626 68.5403 93.486C68.2883 93.3367 68.083 93.15 67.9243 92.926C67.7657 92.6927 67.6863 92.408 67.6863 92.072C67.6863 91.456 67.929 90.938 68.4143 90.518C68.909 90.098 69.5997 89.888 70.4863 89.888C71.3077 89.888 71.961 90.0793 72.4463 90.462C72.941 90.8447 73.235 91.372 73.3283 92.044H71.6343C71.5317 91.5307 71.1443 91.274 70.4723 91.274C70.1363 91.274 69.875 91.3393 69.6883 91.47C69.511 91.6007 69.4223 91.764 69.4223 91.96C69.4223 92.1653 69.5577 92.3287 69.8283 92.45C70.099 92.5713 70.4583 92.6833 70.9063 92.786C71.3917 92.898 71.835 93.024 72.2363 93.164C72.647 93.2947 72.9737 93.4953 73.2163 93.766C73.459 94.0273 73.5803 94.4053 73.5803 94.9C73.5897 95.3293 73.4777 95.7167 73.2443 96.062C73.011 96.4073 72.675 96.678 72.2363 96.874C71.7977 97.07 71.2797 97.168 70.6823 97.168ZM78.4998 97.168C77.8278 97.168 77.2211 97.014 76.6798 96.706C76.1478 96.398 75.7231 95.9733 75.4058 95.432C75.0978 94.8813 74.9438 94.2467 74.9438 93.528C74.9438 92.8093 75.1025 92.1793 75.4198 91.638C75.7371 91.0873 76.1618 90.658 76.6938 90.35C77.2351 90.042 77.8418 89.888 78.5138 89.888C79.1765 89.888 79.7738 90.042 80.3058 90.35C80.8471 90.658 81.2718 91.0873 81.5798 91.638C81.8971 92.1793 82.0558 92.8093 82.0558 93.528C82.0558 94.2467 81.8971 94.8813 81.5798 95.432C81.2718 95.9733 80.8471 96.398 80.3058 96.706C79.7645 97.014 79.1625 97.168 78.4998 97.168ZM78.4998 95.614C78.9665 95.614 79.3725 95.4413 79.7178 95.096C80.0631 94.7413 80.2358 94.2187 80.2358 93.528C80.2358 92.8373 80.0631 92.3193 79.7178 91.974C79.3725 91.6193 78.9711 91.442 78.5138 91.442C78.0378 91.442 77.6271 91.6193 77.2818 91.974C76.9458 92.3193 76.7778 92.8373 76.7778 93.528C76.7778 94.2187 76.9458 94.7413 77.2818 95.096C77.6271 95.4413 78.0331 95.614 78.4998 95.614ZM83.658 97V90.056H85.254L85.422 91.358C85.674 90.91 86.0147 90.5553 86.444 90.294C86.8827 90.0233 87.396 89.888 87.984 89.888V91.778H87.48C87.088 91.778 86.738 91.8387 86.43 91.96C86.122 92.0813 85.8794 92.2913 85.702 92.59C85.534 92.8887 85.45 93.304 85.45 93.836V97H83.658Z" fill="#FCFCFD"/>
</svg>
