<svg width="40" height="40" viewBox="0 0 40 40" fill="none" xmlns="http://www.w3.org/2000/svg">
<path fill-rule="evenodd" clip-rule="evenodd" d="M22.0001 21.6972C22.0001 21.4998 22.0585 21.3068 22.168 21.1425L27.2266 13.5547C27.6696 12.8901 27.1932 12 26.3945 12H13.6056C12.8069 12 12.3305 12.8901 12.7736 13.5547L17.8321 21.1425C17.9416 21.3068 18.0001 21.4998 18.0001 21.6972V27.5873C18.0001 28.3727 18.864 28.8515 19.5301 28.4353L21.5301 27.1853C21.8225 27.0025 22.0001 26.682 22.0001 26.3373V21.6972ZM24.0001 22.3028C24.0001 22.1054 24.0585 21.9123 24.168 21.7481L28.8907 14.6641C30.2198 12.6704 28.7906 10 26.3945 10H13.6056C11.2095 10 9.78037 12.6704 11.1095 14.6641L15.8321 21.7481C15.9416 21.9123 16.0001 22.1054 16.0001 22.3028V27.5873C16.0001 29.9436 18.5919 31.3801 20.5901 30.1313L22.5901 28.8813C23.4672 28.333 24.0001 27.3716 24.0001 26.3373V22.3028Z" fill="#777E91"/>
<rect x="1" y="1" width="38" height="38" rx="19" stroke="#353945" stroke-width="2"/>
</svg>
