<svg width="20" height="20" viewBox="0 0 20 20" fill="none" xmlns="http://www.w3.org/2000/svg">
<path fill-rule="evenodd" clip-rule="evenodd" d="M9.9974 3.33415C8.37054 3.33415 6.87086 3.46832 5.66715 3.62729C4.58383 3.77037 3.76695 4.58725 3.62388 5.67057C3.4649 6.87428 3.33073 8.37395 3.33073 10.0008C3.33073 11.6277 3.4649 13.1273 3.62388 14.3311C3.76695 15.4144 4.58383 16.2313 5.66715 16.3743C6.87086 16.5333 8.37054 16.6675 9.9974 16.6675C11.6243 16.6675 13.1239 16.5333 14.3276 16.3743C15.411 16.2313 16.2278 15.4144 16.3709 14.3311C16.5299 13.1273 16.6641 11.6277 16.6641 10.0008C16.6641 8.37395 16.5299 6.87428 16.3709 5.67057C16.2278 4.58725 15.411 3.77037 14.3276 3.62729C13.1239 3.46832 11.6243 3.33415 9.9974 3.33415ZM5.44893 1.97497C3.61827 2.21675 2.21333 3.62168 1.97156 5.45235C1.80534 6.71088 1.66406 8.28521 1.66406 10.0008C1.66406 11.7164 1.80534 13.2907 1.97156 14.5493C2.21333 16.3799 3.61827 17.7849 5.44893 18.0267C6.70746 18.1929 8.28179 18.3341 9.9974 18.3341C11.713 18.3341 13.2873 18.1929 14.5459 18.0267C16.3765 17.7849 17.7815 16.3799 18.0232 14.5493C18.1895 13.2907 18.3307 11.7164 18.3307 10.0008C18.3307 8.28521 18.1895 6.71088 18.0232 5.45235C17.7815 3.62168 16.3765 2.21675 14.5459 1.97497C13.2873 1.80876 11.713 1.66748 9.9974 1.66748C8.28179 1.66748 6.70746 1.80876 5.44893 1.97497Z" fill="#777E91"/>
<path fill-rule="evenodd" clip-rule="evenodd" d="M8.16074 6.49505C7.83531 6.82049 7.83531 7.34813 8.16074 7.67357L10.4882 10.001L8.16074 12.3284C7.83531 12.6538 7.83531 13.1815 8.16074 13.5069C8.48618 13.8323 9.01382 13.8323 9.33926 13.5069L12.2559 10.5902C12.5814 10.2648 12.5814 9.73716 12.2559 9.41172L9.33926 6.49505C9.01382 6.16962 8.48618 6.16962 8.16074 6.49505Z" fill="#777E91"/>
</svg>
