<svg width="20" height="20" viewBox="0 0 20 20" fill="none" xmlns="http://www.w3.org/2000/svg">
<path fill-rule="evenodd" clip-rule="evenodd" d="M9.9974 18.3341C14.5998 18.3341 18.3307 14.6032 18.3307 10.0008C18.3307 5.39844 14.5998 1.66748 9.9974 1.66748C5.39502 1.66748 1.66406 5.39844 1.66406 10.0008C1.66406 14.6032 5.39502 18.3341 9.9974 18.3341ZM8.08665 6.91156C7.76122 6.58612 7.23358 6.58612 6.90814 6.91156C6.5827 7.23699 6.5827 7.76463 6.90814 8.09007L8.81889 10.0008L6.90814 11.9116C6.5827 12.237 6.5827 12.7646 6.90814 13.0901C7.23358 13.4155 7.76122 13.4155 8.08665 13.0901L9.9974 11.1793L11.9081 13.0901C12.2336 13.4155 12.7612 13.4155 13.0867 13.0901C13.4121 12.7646 13.4121 12.237 13.0867 11.9116L11.1759 10.0008L13.0867 8.09007C13.4121 7.76463 13.4121 7.23699 13.0867 6.91156C12.7612 6.58612 12.2336 6.58612 11.9081 6.91156L9.9974 8.8223L8.08665 6.91156Z" fill="#EF466F"/>
</svg>
