<svg width="20" height="20" viewBox="0 0 20 20" fill="none" xmlns="http://www.w3.org/2000/svg">
<path fill-rule="evenodd" clip-rule="evenodd" d="M9.9974 16.6675C13.6793 16.6675 16.6641 13.6827 16.6641 10.0008C16.6641 6.31892 13.6793 3.33415 9.9974 3.33415C6.3155 3.33415 3.33073 6.31892 3.33073 10.0008C3.33073 13.6827 6.3155 16.6675 9.9974 16.6675ZM9.9974 18.3341C14.5998 18.3341 18.3307 14.6032 18.3307 10.0008C18.3307 5.39844 14.5998 1.66748 9.9974 1.66748C5.39502 1.66748 1.66406 5.39844 1.66406 10.0008C1.66406 14.6032 5.39502 18.3341 9.9974 18.3341Z" fill="#777E91"/>
<path fill-rule="evenodd" clip-rule="evenodd" d="M6.90814 6.91156C7.23358 6.58612 7.76121 6.58612 8.08665 6.91156L9.9974 8.8223L11.9081 6.91156C12.2336 6.58612 12.7612 6.58612 13.0867 6.91156C13.4121 7.237 13.4121 7.76463 13.0867 8.09007L11.1759 10.0008L13.0867 11.9116C13.4121 12.237 13.4121 12.7646 13.0867 13.0901C12.7612 13.4155 12.2336 13.4155 11.9081 13.0901L9.9974 11.1793L8.08665 13.0901C7.76121 13.4155 7.23358 13.4155 6.90814 13.0901C6.5827 12.7646 6.5827 12.237 6.90814 11.9116L8.81888 10.0008L6.90814 8.09007C6.5827 7.76463 6.5827 7.237 6.90814 6.91156Z" fill="#777E91"/>
</svg>
