<svg width="20" height="20" viewBox="0 0 20 20" fill="none" xmlns="http://www.w3.org/2000/svg">
<path fill-rule="evenodd" clip-rule="evenodd" d="M9.9974 16.6675C13.6793 16.6675 16.6641 13.6827 16.6641 10.0008C16.6641 6.31892 13.6793 3.33415 9.9974 3.33415C6.3155 3.33415 3.33073 6.31892 3.33073 10.0008C3.33073 13.6827 6.3155 16.6675 9.9974 16.6675ZM9.9974 18.3341C14.5998 18.3341 18.3307 14.6032 18.3307 10.0008C18.3307 5.39844 14.5998 1.66748 9.9974 1.66748C5.39502 1.66748 1.66406 5.39844 1.66406 10.0008C1.66406 14.6032 5.39502 18.3341 9.9974 18.3341Z" fill="#777E91"/>
<path d="M9.16406 5.83431C9.16406 5.37407 9.53716 5.00098 9.9974 5.00098C10.4576 5.00098 10.8307 5.37407 10.8307 5.83431C12.2114 5.83431 13.3307 6.9536 13.3307 8.33431C13.3307 8.79455 12.9576 9.16764 12.4974 9.16764C12.0372 9.16764 11.6641 8.79455 11.6641 8.33431C11.6641 7.87407 11.291 7.50098 10.8307 7.50098H8.95024C8.60809 7.50098 8.33073 7.77834 8.33073 8.12049C8.33073 8.38715 8.50136 8.62389 8.75434 8.70821L11.7675 9.7126C12.701 10.0238 13.3307 10.8974 13.3307 11.8815C13.3307 13.1441 12.3072 14.1676 11.0445 14.1676H10.8307C10.8307 14.6279 10.4576 15.001 9.9974 15.001C9.53716 15.001 9.16406 14.6279 9.16406 14.1676C7.78335 14.1676 6.66406 13.0484 6.66406 11.6676C6.66406 11.2074 7.03716 10.8343 7.4974 10.8343C7.95763 10.8343 8.33073 11.2074 8.33073 11.6676C8.33073 12.1279 8.70383 12.501 9.16406 12.501H11.0445C11.3867 12.501 11.6641 12.2236 11.6641 11.8815C11.6641 11.6148 11.4934 11.3781 11.2405 11.2937L8.22729 10.2894C7.29375 9.97817 6.66406 9.10453 6.66406 8.12049C6.66406 6.85787 7.68762 5.83431 8.95024 5.83431H9.16406Z" fill="#777E91"/>
</svg>
