<svg width="20" height="20" viewBox="0 0 20 20" fill="none" xmlns="http://www.w3.org/2000/svg">
<path fill-rule="evenodd" clip-rule="evenodd" d="M9.9974 16.6675C13.6793 16.6675 16.6641 13.6827 16.6641 10.0008C16.6641 6.31892 13.6793 3.33415 9.9974 3.33415C6.3155 3.33415 3.33073 6.31892 3.33073 10.0008C3.33073 13.6827 6.3155 16.6675 9.9974 16.6675ZM9.9974 18.3341C14.5998 18.3341 18.3307 14.6032 18.3307 10.0008C18.3307 5.39844 14.5998 1.66748 9.9974 1.66748C5.39502 1.66748 1.66406 5.39844 1.66406 10.0008C1.66406 14.6032 5.39502 18.3341 9.9974 18.3341Z" fill="#777E91"/>
<path fill-rule="evenodd" clip-rule="evenodd" d="M9.9974 5.83447C9.53716 5.83447 9.16406 6.20757 9.16406 6.66781C9.16406 7.12804 9.53716 7.50114 9.9974 7.50114C10.4576 7.50114 10.8307 7.12804 10.8307 6.66781C10.8307 6.20757 10.4576 5.83447 9.9974 5.83447ZM9.9974 9.16781C9.53716 9.16781 9.16406 9.5409 9.16406 10.0011V13.3345C9.16406 13.7947 9.53716 14.1678 9.9974 14.1678C10.4576 14.1678 10.8307 13.7947 10.8307 13.3345V10.0011C10.8307 9.5409 10.4576 9.16781 9.9974 9.16781Z" fill="#777E91"/>
</svg>
