<svg width="32" height="32" viewBox="0 0 32 32" fill="none" xmlns="http://www.w3.org/2000/svg">
<rect width="32" height="32" rx="16" fill="#FCFCFD"/>
<path fill-rule="evenodd" clip-rule="evenodd" d="M20.668 11.3333H11.3346C10.5983 11.3333 10.0013 11.9303 10.0013 12.6667V19.3333C10.0013 20.0697 10.5983 20.6667 11.3346 20.6667H20.668C21.4043 20.6667 22.0013 20.0697 22.0013 19.3333V12.6667C22.0013 11.9303 21.4043 11.3333 20.668 11.3333ZM11.3346 10C9.86188 10 8.66797 11.1939 8.66797 12.6667V19.3333C8.66797 20.8061 9.86188 22 11.3346 22H20.668C22.1407 22 23.3346 20.8061 23.3346 19.3333V12.6667C23.3346 11.1939 22.1407 10 20.668 10H11.3346Z" fill="#141416"/>
<path fill-rule="evenodd" clip-rule="evenodd" d="M16.668 16.0003C16.668 14.1594 18.1604 12.667 20.0013 12.667H22.668C23.0362 12.667 23.3346 12.9655 23.3346 13.3337C23.3346 13.7018 23.0362 14.0003 22.668 14.0003H20.0013C18.8967 14.0003 18.0013 14.8958 18.0013 16.0003C18.0013 17.1049 18.8967 18.0003 20.0013 18.0003H22.668C23.0362 18.0003 23.3346 18.2988 23.3346 18.667C23.3346 19.0352 23.0362 19.3337 22.668 19.3337H20.0013C18.1604 19.3337 16.668 17.8413 16.668 16.0003Z" fill="#141416"/>
<path d="M20.6654 15.9997C20.6654 16.3679 20.3669 16.6663 19.9987 16.6663C19.6305 16.6663 19.332 16.3679 19.332 15.9997C19.332 15.6315 19.6305 15.333 19.9987 15.333C20.3669 15.333 20.6654 15.6315 20.6654 15.9997Z" fill="#777E91"/>
</svg>
