<svg width="20" height="20" viewBox="0 0 20 20" fill="none" xmlns="http://www.w3.org/2000/svg">
<path d="M14.1667 0C14.6269 0 15 0.373096 15 0.833333V2.5C15 2.96024 14.6269 3.33333 14.1667 3.33333C13.7064 3.33333 13.3333 2.96024 13.3333 2.5V0.833333C13.3333 0.373096 13.7064 0 14.1667 0Z" fill="#777E91"/>
<path d="M14.1667 10C14.6269 10 15 10.3731 15 10.8333V15.8333C15 16.2936 14.6269 16.6667 14.1667 16.6667C13.7064 16.6667 13.3333 16.2936 13.3333 15.8333V10.8333C13.3333 10.3731 13.7064 10 14.1667 10Z" fill="#777E91"/>
<path d="M5.83333 3.33333C6.29357 3.33333 6.66667 3.70643 6.66667 4.16667V10.8333C6.66667 11.2936 6.29357 11.6667 5.83333 11.6667C5.3731 11.6667 5 11.2936 5 10.8333V4.16667C5 3.70643 5.3731 3.33333 5.83333 3.33333Z" fill="#777E91"/>
<path d="M5.83333 15C6.29357 15 6.66667 15.3731 6.66667 15.8333V19.1667C6.66667 19.6269 6.29357 20 5.83333 20C5.3731 20 5 19.6269 5 19.1667V15.8333C5 15.3731 5.3731 15 5.83333 15Z" fill="#777E91"/>
<path fill-rule="evenodd" clip-rule="evenodd" d="M11.6693 4.16699C11.6693 2.78628 12.7886 1.66699 14.1693 1.66699C15.55 1.66699 16.6693 2.78628 16.6693 4.16699V9.16699C16.6693 10.5477 15.55 11.667 14.1693 11.667C12.7886 11.667 11.6693 10.5477 11.6693 9.16699V4.16699ZM15.0026 4.16699V9.16699C15.0026 9.62723 14.6295 10.0003 14.1693 10.0003C13.709 10.0003 13.3359 9.62723 13.3359 9.16699V4.16699C13.3359 3.70675 13.709 3.33366 14.1693 3.33366C14.6295 3.33366 15.0026 3.70675 15.0026 4.16699Z" fill="#777E91"/>
<path fill-rule="evenodd" clip-rule="evenodd" d="M3.33594 12.5003C3.33594 11.1196 4.45523 10.0003 5.83594 10.0003C7.21665 10.0003 8.33594 11.1196 8.33594 12.5003V14.167C8.33594 15.5477 7.21665 16.667 5.83594 16.667C4.45523 16.667 3.33594 15.5477 3.33594 14.167V12.5003ZM6.66927 12.5003V14.167C6.66927 14.6272 6.29617 15.0003 5.83594 15.0003C5.3757 15.0003 5.0026 14.6272 5.0026 14.167V12.5003C5.0026 12.0401 5.3757 11.667 5.83594 11.667C6.29617 11.667 6.66927 12.0401 6.66927 12.5003Z" fill="#777E91"/>
</svg>
