<svg width="16" height="16" viewBox="0 0 16 16" fill="none" xmlns="http://www.w3.org/2000/svg">
<path fill-rule="evenodd" clip-rule="evenodd" d="M3.5312 3.52827C3.79155 3.26792 4.21366 3.26792 4.47401 3.52827L8.0026 7.05687L11.5312 3.52827C11.7915 3.26792 12.2137 3.26792 12.474 3.52827C12.7344 3.78862 12.7344 4.21073 12.474 4.47108L8.94541 7.99967L12.474 11.5283C12.7344 11.7886 12.7344 12.2107 12.474 12.4711C12.2137 12.7314 11.7915 12.7314 11.5312 12.4711L8.0026 8.94248L4.47401 12.4711C4.21366 12.7314 3.79155 12.7314 3.5312 12.4711C3.27085 12.2107 3.27085 11.7886 3.5312 11.5283L7.0598 7.99967L3.5312 4.47108C3.27085 4.21073 3.27085 3.78862 3.5312 3.52827Z" fill="#FCFCFD"/>
</svg>
