<svg width="16" height="16" viewBox="0 0 16 16" fill="none" xmlns="http://www.w3.org/2000/svg">
<path d="M11.9881 9.67065C12.0031 9.92016 12.2637 10.0885 12.4754 9.95562C13.7908 9.13033 14.6654 7.66713 14.6654 5.99967C14.6654 3.42235 12.576 1.33301 9.99869 1.33301C8.33123 1.33301 6.86803 2.20754 6.04275 3.52297C5.9099 3.7347 6.07821 3.99521 6.32772 4.01021C9.3116 4.1896 11.8087 6.68934 11.9881 9.67065Z" fill="#3772FF"/>
<path d="M10.6654 9.99967C10.6654 12.577 8.57603 14.6663 5.9987 14.6663C3.42137 14.6663 1.33203 12.577 1.33203 9.99967C1.33203 7.42235 3.42137 5.33301 5.9987 5.33301C8.57603 5.33301 10.6654 7.42235 10.6654 9.99967Z" fill="#3772FF"/>
</svg>
