<svg width="16" height="16" viewBox="0 0 16 16" fill="none" xmlns="http://www.w3.org/2000/svg">
<path fill-rule="evenodd" clip-rule="evenodd" d="M10.6693 3.33333H5.33594C4.96775 3.33333 4.66927 3.63181 4.66927 4V6.66667C4.66927 8.50762 6.16166 10 8.0026 10C9.84355 10 11.3359 8.50762 11.3359 6.66667V4C11.3359 3.63181 11.0375 3.33333 10.6693 3.33333ZM5.33594 2C4.23137 2 3.33594 2.89543 3.33594 4V6.66667C3.33594 9.244 5.42528 11.3333 8.0026 11.3333C10.5799 11.3333 12.6693 9.244 12.6693 6.66667V4C12.6693 2.89543 11.7738 2 10.6693 2H5.33594Z" fill="#FCFCFD"/>
<path fill-rule="evenodd" clip-rule="evenodd" d="M0.664062 5.33301C0.664062 4.22844 1.55949 3.33301 2.66406 3.33301H4.66406V8.66634H3.33073C1.85797 8.66634 0.664062 7.47243 0.664062 5.99967V5.33301ZM2.66406 4.66634H3.33073V7.33301C2.59435 7.33301 1.9974 6.73605 1.9974 5.99967V5.33301C1.9974 4.96482 2.29587 4.66634 2.66406 4.66634Z" fill="#FCFCFD"/>
<path fill-rule="evenodd" clip-rule="evenodd" d="M15.3307 5.33301C15.3307 4.22844 14.4353 3.33301 13.3307 3.33301H11.3307V8.66634H12.6641C14.1368 8.66634 15.3307 7.47243 15.3307 5.99967V5.33301ZM13.3307 4.66634H12.6641V7.33301C13.4004 7.33301 13.9974 6.73605 13.9974 5.99967V5.33301C13.9974 4.96482 13.6989 4.66634 13.3307 4.66634Z" fill="#FCFCFD"/>
<path d="M8.0026 10C7.63441 10 7.33594 10.2985 7.33594 10.6667V12.6667H6.0026C5.63441 12.6667 5.33594 12.9651 5.33594 13.3333C5.33594 13.7015 5.63441 14 6.0026 14H10.0026C10.3708 14 10.6693 13.7015 10.6693 13.3333C10.6693 12.9651 10.3708 12.6667 10.0026 12.6667H8.66927V10.6667C8.66927 10.2985 8.37079 10 8.0026 10Z" fill="#FCFCFD"/>
</svg>
