<svg width="17" height="16" viewBox="0 0 17 16" fill="none" xmlns="http://www.w3.org/2000/svg">
<path fill-rule="evenodd" clip-rule="evenodd" d="M11.0677 7.99967C11.0677 9.47243 9.8738 10.6663 8.40104 10.6663C6.92828 10.6663 5.73438 9.47243 5.73438 7.99967C5.73438 6.52692 6.92828 5.33301 8.40104 5.33301C9.8738 5.33301 11.0677 6.52692 11.0677 7.99967ZM9.73438 7.99967C9.73438 8.73605 9.13742 9.33301 8.40104 9.33301C7.66466 9.33301 7.06771 8.73605 7.06771 7.99967C7.06771 7.2633 7.66466 6.66634 8.40104 6.66634C9.13742 6.66634 9.73438 7.2633 9.73438 7.99967Z" fill="#FCFCFD"/>
<path fill-rule="evenodd" clip-rule="evenodd" d="M15.0677 7.99967C15.0677 11.6816 12.0829 14.6663 8.40104 14.6663C4.71914 14.6663 1.73438 11.6816 1.73438 7.99967C1.73438 4.31778 4.71914 1.33301 8.40104 1.33301C12.0829 1.33301 15.0677 4.31778 15.0677 7.99967ZM13.7344 7.99967C13.7344 10.9452 11.3466 13.333 8.40104 13.333C5.45552 13.333 3.06771 10.9452 3.06771 7.99967C3.06771 5.05416 5.45552 2.66634 8.40104 2.66634C11.3466 2.66634 13.7344 5.05416 13.7344 7.99967Z" fill="#FCFCFD"/>
<path d="M4.43543 3.12204C4.55187 2.77275 4.92941 2.58398 5.27871 2.70041L7.27871 3.36707C7.628 3.48351 7.81678 3.86105 7.70034 4.21035C7.58391 4.55964 7.20637 4.74842 6.85707 4.63199L4.85707 3.96532C4.50778 3.84889 4.319 3.47134 4.43543 3.12204Z" fill="#FCFCFD"/>
<path d="M4.47157 7.03469C4.63623 6.70537 5.03668 6.57188 5.366 6.73654L6.69933 7.40321C7.02865 7.56787 7.16213 7.96832 6.99747 8.29764C6.83281 8.62696 6.43236 8.76044 6.10305 8.59578L4.76971 7.92911C4.44039 7.76445 4.30691 7.364 4.47157 7.03469Z" fill="#FCFCFD"/>
<path d="M9.53928 13.1376C9.79963 12.8772 9.79963 12.4551 9.53928 12.1948C9.27893 11.9344 8.85682 11.9344 8.59647 12.1948L7.59647 13.1948C7.33612 13.4551 7.33612 13.8772 7.59647 14.1376C7.85682 14.3979 8.27893 14.3979 8.53928 14.1376L9.53928 13.1376Z" fill="#FCFCFD"/>
<path d="M9.59647 9.19477C9.85682 8.93442 10.2789 8.93442 10.5393 9.19477L10.8726 9.52811C11.133 9.78846 11.133 10.2106 10.8726 10.4709C10.6123 10.7313 10.1901 10.7313 9.9298 10.4709L9.59647 10.1376C9.33612 9.87723 9.33612 9.45512 9.59647 9.19477Z" fill="#FCFCFD"/>
<path d="M5.66414 10.9643C5.8288 10.635 5.69532 10.2345 5.366 10.0699C5.03668 9.90522 4.63623 10.0387 4.47157 10.368L3.8049 11.7014C3.64024 12.0307 3.77373 12.4311 4.10305 12.5958C4.43236 12.7604 4.83281 12.627 4.99747 12.2976L5.66414 10.9643Z" fill="#FCFCFD"/>
<path d="M14.9975 7.70135C15.1621 8.03067 15.0287 8.43112 14.6993 8.59578L13.366 9.26245C13.0367 9.42711 12.6362 9.29362 12.4716 8.9643C12.3069 8.63498 12.4404 8.23454 12.7697 8.06988L14.103 7.40321C14.4324 7.23855 14.8328 7.37203 14.9975 7.70135Z" fill="#FCFCFD"/>
<path d="M11.0337 5.54368C11.1501 5.19439 10.9613 4.81684 10.612 4.70041C10.2627 4.58398 9.8852 4.77275 9.76877 5.12204L9.43543 6.12204C9.319 6.47134 9.50778 6.84889 9.85707 6.96532C10.2064 7.08175 10.5839 6.89298 10.7003 6.54368L11.0337 5.54368Z" fill="#FCFCFD"/>
</svg>
