<svg width="17" height="16" viewBox="0 0 17 16" fill="none" xmlns="http://www.w3.org/2000/svg">
<path fill-rule="evenodd" clip-rule="evenodd" d="M8.20573 14.6663C11.8876 14.6663 14.8724 11.6816 14.8724 7.99967C14.8724 4.31778 11.8876 1.33301 8.20573 1.33301C4.52383 1.33301 1.53906 4.31778 1.53906 7.99967C1.53906 11.6816 4.52383 14.6663 8.20573 14.6663ZM12.4189 11.2702C13.121 10.367 13.5391 9.23217 13.5391 7.99967C13.5391 5.27993 11.5033 3.03567 8.8724 2.7076V5.41702C10.0225 5.71305 10.8724 6.75712 10.8724 7.99967C10.8724 8.49424 10.7378 8.95736 10.5031 9.35438L12.4189 11.2702ZM11.4761 12.213L9.56031 10.2972C9.16332 10.5317 8.70024 10.6663 8.20573 10.6663C7.71122 10.6663 7.24814 10.5317 6.85115 10.2972L4.93536 12.213C5.83847 12.915 6.97328 13.333 8.20573 13.333C9.43818 13.333 10.573 12.915 11.4761 12.213ZM5.53906 7.99967C5.53906 8.49424 5.6737 8.95736 5.90831 9.35438L3.99253 11.2702C3.29047 10.367 2.8724 9.23217 2.8724 7.99967C2.8724 5.27993 4.90819 3.03567 7.53906 2.7076V5.41702C6.38891 5.71305 5.53906 6.75712 5.53906 7.99967ZM8.20573 9.33301C8.94211 9.33301 9.53906 8.73605 9.53906 7.99967C9.53906 7.2633 8.94211 6.66634 8.20573 6.66634C7.46935 6.66634 6.8724 7.2633 6.8724 7.99967C6.8724 8.73605 7.46935 9.33301 8.20573 9.33301Z" fill="#FCFCFD"/>
</svg>
