<svg width="32" height="32" viewBox="0 0 32 32" fill="none" xmlns="http://www.w3.org/2000/svg">
<rect width="32" height="32" rx="16" fill="#FCFCFD"/>
<path fill-rule="evenodd" clip-rule="evenodd" d="M21.3346 19.3333H10.668C10.2998 19.3333 10.0013 19.6318 10.0013 20C10.0013 20.3682 10.2998 20.6667 10.668 20.6667H21.3346C21.7028 20.6667 22.0013 20.3682 22.0013 20C22.0013 19.6318 21.7028 19.3333 21.3346 19.3333ZM10.668 18C9.5634 18 8.66797 18.8954 8.66797 20C8.66797 21.1046 9.5634 22 10.668 22H21.3346C22.4392 22 23.3346 21.1046 23.3346 20C23.3346 18.8954 22.4392 18 21.3346 18H10.668Z" fill="#141416"/>
<path d="M16.6654 10.6667C16.6654 10.2985 16.3669 10 15.9987 10C15.6305 10 15.332 10.2985 15.332 10.6667V14.3905L14.4701 13.5286C14.2098 13.2682 13.7876 13.2682 13.5273 13.5286C13.2669 13.7889 13.2669 14.2111 13.5273 14.4714L15.5273 16.4714C15.7876 16.7318 16.2098 16.7318 16.4701 16.4714L18.4701 14.4714C18.7305 14.2111 18.7305 13.7889 18.4701 13.5286C18.2098 13.2682 17.7876 13.2682 17.5273 13.5286L16.6654 14.3905V10.6667Z" fill="#141416"/>
</svg>
