<svg width="14" height="14" viewBox="0 0 14 14" fill="none" xmlns="http://www.w3.org/2000/svg">
<path d="M7.0026 0.333008C6.63441 0.333008 6.33594 0.631485 6.33594 0.999674V2.99967C6.33594 3.36786 6.63441 3.66634 7.0026 3.66634C7.37079 3.66634 7.66927 3.36786 7.66927 2.99967V0.999674C7.66927 0.631485 7.37079 0.333008 7.0026 0.333008Z" fill="#FCFCFD"/>
<path d="M7.0026 10.333C6.63441 10.333 6.33594 10.6315 6.33594 10.9997V12.9997C6.33594 13.3679 6.63441 13.6663 7.0026 13.6663C7.37079 13.6663 7.66927 13.3679 7.66927 12.9997V10.9997C7.66927 10.6315 7.37079 10.333 7.0026 10.333Z" fill="#FCFCFD"/>
<path d="M13.0026 6.33301C13.3708 6.33301 13.6693 6.63148 13.6693 6.99967C13.6693 7.36786 13.3708 7.66634 13.0026 7.66634H11.0026C10.6344 7.66634 10.3359 7.36786 10.3359 6.99967C10.3359 6.63148 10.6344 6.33301 11.0026 6.33301H13.0026Z" fill="#FCFCFD"/>
<path d="M3.66927 6.99967C3.66927 6.63148 3.37079 6.33301 3.0026 6.33301H1.0026C0.634414 6.33301 0.335938 6.63148 0.335938 6.99967C0.335937 7.36786 0.634414 7.66634 1.0026 7.66634H3.0026C3.37079 7.66634 3.66927 7.36786 3.66927 6.99967Z" fill="#FCFCFD"/>
<path d="M10.7739 2.28569C11.0342 2.02535 11.4563 2.02535 11.7167 2.28569C11.977 2.54604 11.977 2.96815 11.7167 3.2285L10.3025 4.64272C10.0421 4.90307 9.62001 4.90307 9.35966 4.64272C9.09931 4.38237 9.09931 3.96026 9.35966 3.69991L10.7739 2.28569Z" fill="#FCFCFD"/>
<path d="M4.64556 9.35666C4.38521 9.09631 3.9631 9.09631 3.70275 9.35666L2.28854 10.7709C2.02819 11.0312 2.02819 11.4533 2.28854 11.7137C2.54889 11.974 2.97099 11.974 3.23134 11.7137L4.64556 10.2995C4.90591 10.0391 4.90591 9.61701 4.64556 9.35666Z" fill="#FCFCFD"/>
<path d="M11.7167 10.7709C11.977 11.0313 11.977 11.4534 11.7167 11.7138C11.4563 11.9741 11.0342 11.9741 10.7739 11.7138L9.35964 10.2995C9.09929 10.0392 9.09929 9.61708 9.35964 9.35673C9.61999 9.09638 10.0421 9.09638 10.3025 9.35673L11.7167 10.7709Z" fill="#FCFCFD"/>
<path d="M4.64562 4.64263C4.90597 4.38228 4.90597 3.96017 4.64562 3.69982L3.23141 2.28561C2.97106 2.02526 2.54895 2.02526 2.2886 2.28561C2.02825 2.54596 2.02825 2.96807 2.2886 3.22841L3.70281 4.64263C3.96316 4.90298 4.38527 4.90298 4.64562 4.64263Z" fill="#FCFCFD"/>
</svg>
