<svg width="20" height="20" viewBox="0 0 20 20" fill="none" xmlns="http://www.w3.org/2000/svg">
<path fill-rule="evenodd" clip-rule="evenodd" d="M10.0013 16.667C13.6832 16.667 16.668 13.6822 16.668 10.0003C16.668 6.31843 13.6832 3.33366 10.0013 3.33366C6.3194 3.33366 3.33464 6.31843 3.33464 10.0003C3.33464 13.6822 6.3194 16.667 10.0013 16.667ZM10.0013 18.3337C14.6036 18.3337 18.3346 14.6027 18.3346 10.0003C18.3346 5.39795 14.6036 1.66699 10.0013 1.66699C5.39893 1.66699 1.66797 5.39795 1.66797 10.0003C1.66797 14.6027 5.39893 18.3337 10.0013 18.3337Z" fill="#777E91"/>
<path d="M10.0013 8.33301C10.0013 7.87277 10.3744 7.49967 10.8346 7.49967H11.668C12.1282 7.49967 12.5013 7.12658 12.5013 6.66634C12.5013 6.20611 12.1282 5.83301 11.668 5.83301H10.8346C9.45389 5.83301 8.33464 6.9523 8.33464 8.33301V9.99967H7.5013C7.04107 9.99967 6.66797 10.3728 6.66797 10.833C6.66797 11.2933 7.04106 11.6663 7.5013 11.6663H8.33464V16.6663C8.33464 17.1266 8.70772 17.4997 9.16797 17.4997C9.62822 17.4997 10.0013 17.1266 10.0013 16.6663V11.6663H11.668C12.1282 11.6663 12.5013 11.2933 12.5013 10.833C12.5013 10.3728 12.1282 9.99967 11.668 9.99967H10.0013V8.33301Z" fill="#777E91"/>
</svg>
