<svg width="40" height="40" viewBox="0 0 40 40" fill="none" xmlns="http://www.w3.org/2000/svg">
<path fill-rule="evenodd" clip-rule="evenodd" d="M22.0011 21.6972C22.0011 21.4998 22.0595 21.3068 22.169 21.1425L27.2276 13.5547C27.6706 12.8901 27.1942 12 26.3955 12H13.6066C12.8079 12 12.3315 12.8901 12.7746 13.5547L17.8331 21.1425C17.9426 21.3068 18.0011 21.4998 18.0011 21.6972V27.5873C18.0011 28.3727 18.865 28.8515 19.5311 28.4353L21.5311 27.1853C21.8234 27.0025 22.0011 26.682 22.0011 26.3373V21.6972ZM24.0011 22.3028C24.0011 22.1054 24.0595 21.9123 24.169 21.7481L28.8917 14.6641C30.2208 12.6704 28.7916 10 26.3955 10H13.6066C11.2105 10 9.78135 12.6704 11.1105 14.6641L15.8331 21.7481C15.9426 21.9123 16.0011 22.1054 16.0011 22.3028V27.5873C16.0011 29.9436 18.5929 31.3801 20.5911 30.1313L22.5911 28.8813C23.4682 28.333 24.0011 27.3716 24.0011 26.3373V22.3028Z" fill="#777E91"/>
<rect x="1" y="1" width="38" height="38" rx="19" stroke="#353945" stroke-width="2"/>
</svg>
