<svg width="32" height="32" viewBox="0 0 32 32" fill="none" xmlns="http://www.w3.org/2000/svg">
<rect width="32" height="32" rx="16" fill="#FCFCFD"/>
<path d="M10.668 8.66667C10.668 8.29848 10.9664 8 11.3346 8C11.7028 8 12.0013 8.29848 12.0013 8.66667V23.3333C12.0013 23.7015 11.7028 24 11.3346 24C10.9664 24 10.668 23.7015 10.668 23.3333V8.66667Z" fill="#141416"/>
<path fill-rule="evenodd" clip-rule="evenodd" d="M15.4484 17.333H10.668V9.33301H14.668C15.5388 9.33301 16.2796 9.88955 16.5542 10.6663H19.8439C20.8351 10.6663 21.4798 11.7094 21.0365 12.596L20.0013 14.6663L21.0365 16.7367C21.4798 17.6233 20.8351 18.6663 19.8439 18.6663H17.3346C16.4638 18.6663 15.723 18.1098 15.4484 17.333ZM12.0013 10.6663H14.668C15.0362 10.6663 15.3346 10.9648 15.3346 11.333V15.9997H12.0013V10.6663ZM16.668 16.6663C16.668 17.0345 16.9664 17.333 17.3346 17.333H19.8439L18.5106 14.6663L19.8439 11.9997H16.668V16.6663Z" fill="#141416"/>
</svg>
