<svg width="16" height="16" viewBox="0 0 16 16" fill="none" xmlns="http://www.w3.org/2000/svg">
<path fill-rule="evenodd" clip-rule="evenodd" d="M7.9987 13.333C10.9442 13.333 13.332 10.9452 13.332 7.99967C13.332 5.05416 10.9442 2.66634 7.9987 2.66634C5.05318 2.66634 2.66536 5.05416 2.66536 7.99967C2.66536 10.9452 5.05318 13.333 7.9987 13.333ZM7.9987 14.6663C11.6806 14.6663 14.6654 11.6816 14.6654 7.99967C14.6654 4.31778 11.6806 1.33301 7.9987 1.33301C4.3168 1.33301 1.33203 4.31778 1.33203 7.99967C1.33203 11.6816 4.3168 14.6663 7.9987 14.6663Z" fill="#777E91"/>
<path fill-rule="evenodd" clip-rule="evenodd" d="M9.16575 12.1174C9.65822 11.1325 10.0013 9.67851 10.0013 7.99967C10.0013 6.32084 9.65822 4.86685 9.16575 3.88191C8.63341 2.81722 8.14467 2.66634 8.0013 2.66634C7.85793 2.66634 7.36919 2.81722 6.83685 3.88191C6.34438 4.86685 6.0013 6.32084 6.0013 7.99967C6.0013 9.67851 6.34438 11.1325 6.83685 12.1174C7.36919 13.1821 7.85793 13.333 8.0013 13.333C8.14467 13.333 8.63341 13.1821 9.16575 12.1174ZM8.0013 14.6663C9.84225 14.6663 11.3346 11.6816 11.3346 7.99967C11.3346 4.31778 9.84225 1.33301 8.0013 1.33301C6.16035 1.33301 4.66797 4.31778 4.66797 7.99967C4.66797 11.6816 6.16035 14.6663 8.0013 14.6663Z" fill="#777E91"/>
<path fill-rule="evenodd" clip-rule="evenodd" d="M14.6324 8.66634C14.6542 8.44707 14.6654 8.22467 14.6654 7.99967C14.6654 7.77467 14.6542 7.55228 14.6324 7.33301H1.36495C1.34318 7.55228 1.33203 7.77467 1.33203 7.99967C1.33203 8.22467 1.34318 8.44707 1.36495 8.66634H14.6324Z" fill="#777E91"/>
</svg>
