<svg width="16" height="16" viewBox="0 0 16 16" fill="none" xmlns="http://www.w3.org/2000/svg">
<path fill-rule="evenodd" clip-rule="evenodd" d="M7.9987 2.66634C6.69721 2.66634 5.49747 2.77368 4.5345 2.90086C3.66785 3.01532 3.01434 3.66882 2.89988 4.53548C2.7727 5.49845 2.66536 6.69819 2.66536 7.99967C2.66536 9.30116 2.7727 10.5009 2.89988 11.4639C3.01434 12.3305 3.66785 12.984 4.5345 13.0985C5.49747 13.2257 6.69721 13.333 7.9987 13.333C9.30019 13.333 10.4999 13.2257 11.4629 13.0985C12.3295 12.984 12.9831 12.3305 13.0975 11.4639C13.2247 10.5009 13.332 9.30116 13.332 7.99967C13.332 6.69819 13.2247 5.49845 13.0975 4.53548C12.9831 3.66882 12.3295 3.01532 11.4629 2.90086C10.4999 2.77368 9.30019 2.66634 7.9987 2.66634ZM4.35992 1.579C2.89539 1.77242 1.77145 2.89637 1.57803 4.3609C1.44505 5.36773 1.33203 6.62719 1.33203 7.99967C1.33203 9.37216 1.44505 10.6316 1.57803 11.6384C1.77145 13.103 2.89539 14.2269 4.35992 14.4203C5.36675 14.5533 6.62621 14.6663 7.9987 14.6663C9.37118 14.6663 10.6306 14.5533 11.6375 14.4203C13.102 14.2269 14.2259 13.103 14.4194 11.6384C14.5523 10.6316 14.6654 9.37216 14.6654 7.99967C14.6654 6.62719 14.5523 5.36773 14.4194 4.3609C14.2259 2.89637 13.102 1.77242 11.6375 1.579C10.6306 1.44603 9.37118 1.33301 7.9987 1.33301C6.62621 1.33301 5.36675 1.44603 4.35992 1.579Z" fill="#FCFCFD"/>
<path d="M6.00041 7.33366C6.73679 7.33366 7.33374 6.73671 7.33374 6.00033C7.33374 5.26395 6.73679 4.66699 6.00041 4.66699C5.26403 4.66699 4.66707 5.26395 4.66707 6.00033C4.66707 6.73671 5.26403 7.33366 6.00041 7.33366Z" fill="#FCFCFD"/>
<path d="M12.0813 8.47185L13.2775 9.66807C13.2362 10.2922 13.176 10.8713 13.1095 11.3857L11.1385 9.41466C10.8781 9.15431 10.456 9.15431 10.1957 9.41466L8.74795 10.8624C7.9669 11.6434 6.70057 11.6434 5.91952 10.8624L5.80514 10.748C5.54479 10.4876 5.12268 10.4876 4.86233 10.748L3.25629 12.354C3.07024 12.1018 2.94576 11.799 2.90158 11.4645C2.87749 11.2821 2.8541 11.0912 2.83203 10.8927L3.91953 9.80519C4.70057 9.02414 5.9669 9.02414 6.74795 9.80519L6.86233 9.91957C7.12268 10.1799 7.54479 10.1799 7.80514 9.91957L9.25286 8.47185C10.0339 7.6908 11.3002 7.69081 12.0813 8.47185Z" fill="#FCFCFD"/>
</svg>
