<svg width="20" height="20" viewBox="0 0 20 20" fill="none" xmlns="http://www.w3.org/2000/svg">
<path fill-rule="evenodd" clip-rule="evenodd" d="M13.3346 3.33366H6.66797C4.82702 3.33366 3.33464 4.82604 3.33464 6.66699V13.3337C3.33464 15.1746 4.82702 16.667 6.66797 16.667H13.3346C15.1756 16.667 16.668 15.1746 16.668 13.3337V6.66699C16.668 4.82604 15.1756 3.33366 13.3346 3.33366ZM6.66797 1.66699C3.90654 1.66699 1.66797 3.90557 1.66797 6.66699V13.3337C1.66797 16.0951 3.90654 18.3337 6.66797 18.3337H13.3346C16.0961 18.3337 18.3346 16.0951 18.3346 13.3337V6.66699C18.3346 3.90557 16.0961 1.66699 13.3346 1.66699H6.66797Z" fill="#777E91"/>
<path d="M14.1654 6.66667C14.6256 6.66667 14.9987 6.29357 14.9987 5.83333C14.9987 5.3731 14.6256 5 14.1654 5C13.7051 5 13.332 5.3731 13.332 5.83333C13.332 6.29357 13.7051 6.66667 14.1654 6.66667Z" fill="#777E91"/>
<path fill-rule="evenodd" clip-rule="evenodd" d="M14.1654 9.99967C14.1654 12.3008 12.2999 14.1663 9.9987 14.1663C7.69751 14.1663 5.83203 12.3008 5.83203 9.99967C5.83203 7.69849 7.69751 5.83301 9.9987 5.83301C12.2999 5.83301 14.1654 7.69849 14.1654 9.99967ZM12.4987 9.99967C12.4987 11.3804 11.3794 12.4997 9.9987 12.4997C8.61795 12.4997 7.4987 11.3804 7.4987 9.99967C7.4987 8.61892 8.61795 7.49967 9.9987 7.49967C11.3794 7.49967 12.4987 8.61892 12.4987 9.99967Z" fill="#777E91"/>
</svg>
