<svg width="16" height="16" viewBox="0 0 16 16" fill="none" xmlns="http://www.w3.org/2000/svg">
<path d="M8.0026 1.3335C7.63441 1.3335 7.33594 1.63197 7.33594 2.00016V4.00016C7.33594 4.36835 7.63441 4.66683 8.0026 4.66683C8.37079 4.66683 8.66927 4.36835 8.66927 4.00016V2.00016C8.66927 1.63197 8.37079 1.3335 8.0026 1.3335Z" fill="#FCFCFD"/>
<path d="M8.0026 11.3335C7.63441 11.3335 7.33594 11.632 7.33594 12.0002V14.0002C7.33594 14.3684 7.63441 14.6668 8.0026 14.6668C8.37079 14.6668 8.66927 14.3684 8.66927 14.0002V12.0002C8.66927 11.632 8.37079 11.3335 8.0026 11.3335Z" fill="#FCFCFD"/>
<path d="M14.0026 7.3335C14.3708 7.3335 14.6693 7.63197 14.6693 8.00016C14.6693 8.36835 14.3708 8.66683 14.0026 8.66683H12.0026C11.6344 8.66683 11.3359 8.36835 11.3359 8.00016C11.3359 7.63197 11.6344 7.3335 12.0026 7.3335H14.0026Z" fill="#FCFCFD"/>
<path d="M4.66927 8.00016C4.66927 7.63197 4.37079 7.3335 4.0026 7.3335H2.0026C1.63441 7.3335 1.33594 7.63197 1.33594 8.00016C1.33594 8.36835 1.63441 8.66683 2.0026 8.66683H4.0026C4.37079 8.66683 4.66927 8.36835 4.66927 8.00016Z" fill="#FCFCFD"/>
<path d="M11.7739 3.28618C12.0342 3.02583 12.4563 3.02583 12.7167 3.28618C12.977 3.54653 12.977 3.96864 12.7167 4.22899L11.3025 5.64321C11.0421 5.90356 10.62 5.90356 10.3597 5.64321C10.0993 5.38286 10.0993 4.96075 10.3597 4.7004L11.7739 3.28618Z" fill="#FCFCFD"/>
<path d="M5.64556 10.3571C5.38521 10.0968 4.9631 10.0968 4.70275 10.3571L3.28854 11.7714C3.02819 12.0317 3.02819 12.4538 3.28854 12.7142C3.54889 12.9745 3.971 12.9745 4.23134 12.7142L5.64556 11.3C5.90591 11.0396 5.90591 10.6175 5.64556 10.3571Z" fill="#FCFCFD"/>
<path d="M12.7167 11.7714C12.977 12.0318 12.977 12.4539 12.7167 12.7142C12.4563 12.9746 12.0342 12.9746 11.7739 12.7142L10.3596 11.3C10.0993 11.0397 10.0993 10.6176 10.3596 10.3572C10.62 10.0969 11.0421 10.0969 11.3025 10.3572L12.7167 11.7714Z" fill="#FCFCFD"/>
<path d="M5.64562 5.64312C5.90597 5.38277 5.90597 4.96066 5.64562 4.70031L4.23141 3.28609C3.97106 3.02574 3.54895 3.02574 3.2886 3.28609C3.02825 3.54644 3.02825 3.96855 3.2886 4.2289L4.70281 5.64312C4.96316 5.90347 5.38527 5.90347 5.64562 5.64312Z" fill="#FCFCFD"/>
</svg>
