<svg width="32" height="32" viewBox="0 0 32 32" fill="none" xmlns="http://www.w3.org/2000/svg">
<rect width="32" height="32" rx="16" fill="#FCFCFD"/>
<path d="M10.8444 17.9551C10.8422 18.0241 10.8454 18.0943 10.8542 18.1652L11.1397 20.449C11.2505 21.335 12.0036 21.9998 12.8965 21.9998C13.8743 21.9998 14.6669 21.2072 14.6669 20.2294V18.1883C14.2308 18.0823 13.7842 18.0204 13.3336 18.0042V20.2294C13.3336 20.4708 13.1379 20.6665 12.8965 20.6665C12.676 20.6665 12.4901 20.5024 12.4628 20.2836L12.1773 17.9998C13.8286 17.9998 12.1644 17.9998 11.3335 17.9998C11.1664 17.9998 11.003 17.9845 10.8444 17.9551Z" fill="#141416"/>
<path fill-rule="evenodd" clip-rule="evenodd" d="M13.0942 14.0002H11.3346C10.5983 14.0002 10.0013 14.5972 10.0013 15.3336C10.0013 16.0699 10.5983 16.6669 11.3346 16.6669H13.0942C14.3361 16.6669 15.561 16.9561 16.6719 17.5115L20.3698 19.3605C20.8131 19.5821 21.3346 19.2598 21.3346 18.7642V11.903C21.3346 11.4074 20.8131 11.0851 20.3698 11.3067L16.6719 13.1557C15.561 13.7111 14.3361 14.0002 13.0942 14.0002ZM11.3346 12.6669C9.86188 12.6669 8.66797 13.8608 8.66797 15.3336C8.66797 16.8063 9.86188 18.0002 11.3346 18.0002H13.0942C14.1291 18.0002 15.1499 18.2412 16.0756 18.7041L19.7735 20.553C21.1033 21.2179 22.668 20.2509 22.668 18.7642V11.903C22.668 10.4162 21.1033 9.44922 19.7735 10.1141L16.0756 11.9631C15.1499 12.4259 14.1291 12.6669 13.0942 12.6669H11.3346Z" fill="#141416"/>
<path d="M15.3333 18.3881C14.9012 18.2339 14.4544 18.1248 14 18.0624V12.605C14.4544 12.5426 14.9012 12.4335 15.3333 12.2793V18.3881Z" fill="#FCFCFD"/>
<path d="M22.668 16.6095C23.0564 16.4722 23.3346 16.1018 23.3346 15.6664V14.9997C23.3346 14.5643 23.0564 14.1939 22.668 14.0566V16.6095Z" fill="#FCFCFD"/>
</svg>
