<svg width="41" height="40" viewBox="0 0 41 40" fill="none" xmlns="http://www.w3.org/2000/svg">
<g clip-path="url(#clip0_231_13199)">
<path d="M14.6667 18.333C13.75 18.333 13 19.083 13 19.9997C13 20.9163 13.75 21.6663 14.6667 21.6663C15.5833 21.6663 16.3333 20.9163 16.3333 19.9997C16.3333 19.083 15.5833 18.333 14.6667 18.333ZM26.3333 18.333C25.4167 18.333 24.6667 19.083 24.6667 19.9997C24.6667 20.9163 25.4167 21.6663 26.3333 21.6663C27.25 21.6663 28 20.9163 28 19.9997C28 19.083 27.25 18.333 26.3333 18.333ZM20.5 18.333C19.5833 18.333 18.8333 19.083 18.8333 19.9997C18.8333 20.9163 19.5833 21.6663 20.5 21.6663C21.4167 21.6663 22.1667 20.9163 22.1667 19.9997C22.1667 19.083 21.4167 18.333 20.5 18.333Z" fill="#777E91"/>
</g>
<rect x="1.5" y="1" width="38" height="38" rx="19" stroke="#353945" stroke-width="2"/>
<defs>
<clipPath id="clip0_231_13199">
<rect width="20" height="20" fill="white" transform="translate(10.5 10)"/>
</clipPath>
</defs>
</svg>
