<svg width="48" height="48" viewBox="0 0 48 48" fill="none" xmlns="http://www.w3.org/2000/svg">
<rect width="48" height="48" rx="24" fill="#353945"/>
<path fill-rule="evenodd" clip-rule="evenodd" d="M14.0189 30.3974L14.7435 27.1365C14.9085 26.3938 15.2819 25.7137 15.8198 25.1758L25.6678 15.3278C27.2298 13.7657 29.7625 13.7657 31.3246 15.3278L32.6678 16.671C34.2299 18.2331 34.2299 20.7657 32.6678 22.3278L22.8198 32.1758C22.2819 32.7137 21.6017 33.087 20.8591 33.2521L17.5982 33.9767C15.4547 34.4531 13.5425 32.5409 14.0189 30.3974ZM16.6959 27.5703L15.9712 30.8312C15.8125 31.5457 16.4498 32.1831 17.1643 32.0243L20.4253 31.2997C20.7824 31.2203 21.1106 31.0446 21.3744 30.7921L17.2035 26.6212C16.9509 26.885 16.7752 27.2132 16.6959 27.5703ZM18.6174 25.2066L22.789 29.3782L28.3748 23.7924L24.2032 19.6208L18.6174 25.2066ZM31.2535 20.9136L29.789 22.3782L25.6174 18.2066L27.082 16.742C27.863 15.961 29.1293 15.961 29.9104 16.742L31.2535 18.0852C32.0346 18.8662 32.0346 20.1326 31.2535 20.9136Z" fill="#777E91"/>
</svg>
