<svg width="25" height="24" viewBox="0 0 25 24" fill="none" xmlns="http://www.w3.org/2000/svg">
<path fill-rule="evenodd" clip-rule="evenodd" d="M12.3984 4C10.4462 4 8.6466 4.161 7.20214 4.35177C5.90216 4.52346 4.9219 5.50372 4.75021 6.80371C4.55944 8.24816 4.39844 10.0478 4.39844 12C4.39844 13.9522 4.55944 15.7518 4.75021 17.1963C4.9219 18.4963 5.90216 19.4765 7.20214 19.6482C8.6466 19.839 10.4462 20 12.3984 20C14.3507 20 16.1503 19.839 17.5947 19.6482C18.8947 19.4765 19.875 18.4963 20.0467 17.1963C20.2374 15.7518 20.3984 13.9522 20.3984 12C20.3984 10.0478 20.2374 8.24816 20.0467 6.80371C19.875 5.50372 18.8947 4.52346 17.5947 4.35177C16.1503 4.16101 14.3507 4 12.3984 4ZM6.94028 2.36899C4.74348 2.65912 3.05756 4.34504 2.76743 6.54184C2.56797 8.05208 2.39844 9.94127 2.39844 12C2.39844 14.0587 2.56797 15.9479 2.76743 17.4582C3.05756 19.655 4.74348 21.3409 6.94028 21.631C8.45052 21.8305 10.3397 22 12.3984 22C14.4572 22 16.3464 21.8305 17.8566 21.631C20.0534 21.3409 21.7393 19.655 22.0294 17.4582C22.2289 15.9479 22.3984 14.0587 22.3984 12C22.3984 9.94127 22.2289 8.05208 22.0294 6.54184C21.7393 4.34504 20.0534 2.65912 17.8566 2.36899C16.3464 2.16953 14.4572 2 12.3984 2C10.3397 2 8.45052 2.16953 6.94028 2.36899Z" fill="#777E91"/>
<path fill-rule="evenodd" clip-rule="evenodd" d="M12.3984 17C12.9507 17 13.3984 16.5523 13.3984 16V13H16.3984C16.9507 13 17.3984 12.5523 17.3984 12C17.3984 11.4477 16.9507 11 16.3984 11H13.3984V8C13.3984 7.44772 12.9507 7 12.3984 7C11.8462 7 11.3984 7.44772 11.3984 8V11H8.39844C7.84615 11 7.39844 11.4477 7.39844 12C7.39844 12.5523 7.84615 13 8.39844 13H11.3984V16C11.3984 16.5523 11.8462 17 12.3984 17Z" fill="#777E91"/>
</svg>
