<svg width="129" height="128" viewBox="0 0 129 128" fill="none" xmlns="http://www.w3.org/2000/svg">
<path d="M43.0052 5.33301H5.67188V42.6663H43.0052V5.33301ZM37.6719 37.333H11.0052V10.6663H37.6719V37.333Z" fill="#FCFCFD"/>
<path d="M83.0052 112H77.6719V122.667H123.005V117.333H83.0052V112Z" fill="#FCFCFD"/>
<path d="M32.3359 16H16.3359V32H32.3359V16Z" fill="#FCFCFD"/>
<path d="M5.67188 122.666H43.0052V85.333H5.67188V122.666ZM11.0052 90.6663H37.6719V117.333H11.0052V90.6663Z" fill="#FCFCFD"/>
<path d="M32.3359 96H16.3359V112H32.3359V96Z" fill="#FCFCFD"/>
<path d="M85.6719 5.33301V42.6663H123.005V5.33301H85.6719ZM117.672 37.333H91.0052V10.6663H117.672V37.333Z" fill="#FCFCFD"/>
<path d="M112.336 16H96.3359V32H112.336V16Z" fill="#FCFCFD"/>
<path d="M123.003 48H112.336V58.6667H123.003V48Z" fill="#FCFCFD"/>
<path d="M16.3385 69.333H5.67188V79.9997H16.3385V69.333Z" fill="#FCFCFD"/>
<path d="M61.6693 47.9997H40.3359V53.333H67.0026V42.6663V37.333H72.3359V26.6663H67.0026H61.6693H56.3359V15.9997H61.6693V21.333H80.3359V5.33301H75.0026V15.9997H67.0026V5.33301H64.3359H53.6693H51.0026V31.9997H61.6693V37.333H51.0026V42.6663H61.6693V47.9997Z" fill="#FCFCFD"/>
<path d="M13.6719 64H24.3385H29.6719H32.3385V69.3333H21.6719V74.6667H32.3385V80H53.6719V74.6667H37.6719V69.3333V58.6667H29.6719V50.6667H24.3385V58.6667H19.0052V48H5.67188V53.3333H13.6719V64Z" fill="#FCFCFD"/>
<path d="M64.3359 112V98.6667H53.6693V88H48.3359V104H59.0026V112H48.3359V117.333H59.0026V122.667H72.3359V117.333H64.3359V112Z" fill="#FCFCFD"/>
<path d="M91.0078 58.6663H80.3411V45.333H75.0078V63.9997H101.674V58.6663H96.3411V53.333H104.341V47.9997H96.3411H91.0078H85.6745V53.333H91.0078V58.6663Z" fill="#FCFCFD"/>
<path d="M85.6719 106.666H93.6719V111.999H104.339V106.666V101.333V93.3327H93.6719V101.333H85.6719V93.3327H80.3385V101.333H75.0052V79.9993H69.6719V74.666H64.3385V58.666H45.6719V69.3327H51.0052V63.9993H59.0052V74.666V85.3327H69.6719V101.333V106.666H75.0052H80.3385H85.6719Z" fill="#FCFCFD"/>
<path d="M117.669 72H109.669H104.336H91.0026V82.6667H85.6693V72H80.3359V88H96.3359V77.3333H104.336V85.3333H109.669V77.3333H117.669V93.3333H109.669V109.333H123.003V104H115.003V98.6667H123.003V77.3333V72V64H117.669V72Z" fill="#FCFCFD"/>
</svg>
