<svg width="16" height="16" viewBox="0 0 16 16" fill="none" xmlns="http://www.w3.org/2000/svg">
<path d="M13.3333 8.66634C13.7015 8.66634 14 8.36786 14 7.99967C14 7.63148 13.7015 7.33301 13.3333 7.33301C12.9651 7.33301 12.6667 7.63148 12.6667 7.99967C12.6667 8.36786 12.9651 8.66634 13.3333 8.66634Z" fill="#FCFCFD"/>
<path d="M13.3333 11.333C13.7015 11.333 14 11.0345 14 10.6663C14 10.2982 13.7015 9.99967 13.3333 9.99967C12.9651 9.99967 12.6667 10.2982 12.6667 10.6663C12.6667 11.0345 12.9651 11.333 13.3333 11.333Z" fill="#FCFCFD"/>
<path d="M13.3333 13.9997C13.7015 13.9997 14 13.7012 14 13.333C14 12.9648 13.7015 12.6663 13.3333 12.6663C12.9651 12.6663 12.6667 12.9648 12.6667 13.333C12.6667 13.7012 12.9651 13.9997 13.3333 13.9997Z" fill="#FCFCFD"/>
<path d="M8 11.333C8.36819 11.333 8.66667 11.0345 8.66667 10.6663C8.66667 10.2982 8.36819 9.99967 8 9.99967C7.63181 9.99967 7.33333 10.2982 7.33333 10.6663C7.33333 11.0345 7.63181 11.333 8 11.333Z" fill="#FCFCFD"/>
<path d="M8 13.9997C8.36819 13.9997 8.66667 13.7012 8.66667 13.333C8.66667 12.9648 8.36819 12.6663 8 12.6663C7.63181 12.6663 7.33333 12.9648 7.33333 13.333C7.33333 13.7012 7.63181 13.9997 8 13.9997Z" fill="#FCFCFD"/>
<path d="M2.66667 13.9997C3.03486 13.9997 3.33333 13.7012 3.33333 13.333C3.33333 12.9648 3.03486 12.6663 2.66667 12.6663C2.29848 12.6663 2 12.9648 2 13.333C2 13.7012 2.29848 13.9997 2.66667 13.9997Z" fill="#FCFCFD"/>
<path fill-rule="evenodd" clip-rule="evenodd" d="M13.3307 6C12.2262 6 11.3307 5.10457 11.3307 4C11.3307 2.89543 12.2262 2 13.3307 2C14.4353 2 15.3307 2.89543 15.3307 4C15.3307 5.10457 14.4353 6 13.3307 6ZM13.3307 4.66667C12.9625 4.66667 12.6641 4.36819 12.6641 4C12.6641 3.63181 12.9625 3.33333 13.3307 3.33333C13.6989 3.33333 13.9974 3.63181 13.9974 4C13.9974 4.36819 13.6989 4.66667 13.3307 4.66667Z" fill="#FCFCFD"/>
<path fill-rule="evenodd" clip-rule="evenodd" d="M7.9974 8.66667C6.89283 8.66667 5.9974 7.77124 5.9974 6.66667C5.9974 5.5621 6.89283 4.66667 7.9974 4.66667C9.10196 4.66667 9.9974 5.5621 9.9974 6.66667C9.9974 7.77124 9.10196 8.66667 7.9974 8.66667ZM7.9974 7.33333C7.62921 7.33333 7.33073 7.03486 7.33073 6.66667C7.33073 6.29848 7.62921 6 7.9974 6C8.36558 6 8.66406 6.29848 8.66406 6.66667C8.66406 7.03486 8.36558 7.33333 7.9974 7.33333Z" fill="#FCFCFD"/>
<path fill-rule="evenodd" clip-rule="evenodd" d="M0.664062 9.33333C0.664062 10.4379 1.55949 11.3333 2.66406 11.3333C3.76863 11.3333 4.66406 10.4379 4.66406 9.33333C4.66406 8.22876 3.76863 7.33333 2.66406 7.33333C1.55949 7.33333 0.664062 8.22876 0.664062 9.33333ZM1.9974 9.33333C1.9974 9.70152 2.29587 10 2.66406 10C3.03225 10 3.33073 9.70152 3.33073 9.33333C3.33073 8.96514 3.03225 8.66667 2.66406 8.66667C2.29587 8.66667 1.9974 8.96514 1.9974 9.33333Z" fill="#FCFCFD"/>
</svg>
