<svg width="20" height="20" viewBox="0 0 20 20" fill="none" xmlns="http://www.w3.org/2000/svg">
<path fill-rule="evenodd" clip-rule="evenodd" d="M12.4188 13.6002C11.2899 14.4778 9.87132 15.0003 8.33073 15.0003C4.64883 15.0003 1.66406 12.0156 1.66406 8.33366C1.66406 4.65176 4.64883 1.66699 8.33073 1.66699C12.0126 1.66699 14.9974 4.65176 14.9974 8.33366C14.9974 9.87425 14.4748 11.2928 13.5973 12.4217L18.0867 16.9111C18.4121 17.2365 18.4121 17.7641 18.0867 18.0896C17.7612 18.415 17.2336 18.415 16.9081 18.0896L12.4188 13.6002ZM13.3307 8.33366C13.3307 11.0951 11.0922 13.3337 8.33073 13.3337C5.56931 13.3337 3.33073 11.0951 3.33073 8.33366C3.33073 5.57224 5.56931 3.33366 8.33073 3.33366C11.0922 3.33366 13.3307 5.57224 13.3307 8.33366Z" fill="#777E91"/>
</svg>
