<svg width="41" height="40" viewBox="0 0 41 40" fill="none" xmlns="http://www.w3.org/2000/svg">
<path fill-rule="evenodd" clip-rule="evenodd" d="M17.9988 18.3661C18.0233 18.8257 17.6706 19.2182 17.211 19.2427C16.5838 19.2761 16.087 19.317 15.6988 19.3579C15.1774 19.4129 14.8606 19.7332 14.808 20.1938C14.7324 20.8552 14.6667 21.8561 14.6667 23.3329C14.6667 24.8098 14.7324 25.8107 14.808 26.472C14.8607 26.9335 15.1767 27.2528 15.6973 27.3078C16.609 27.404 18.116 27.4996 20.5 27.4996C22.884 27.4996 24.391 27.404 25.3027 27.3078C25.8233 27.2528 26.1393 26.9335 26.192 26.472C26.2676 25.8107 26.3333 24.8098 26.3333 23.3329C26.3333 21.8561 26.2676 20.8552 26.192 20.1938C26.1394 19.7332 25.8226 19.4129 25.3012 19.3579C24.913 19.317 24.4162 19.2761 23.789 19.2427C23.3294 19.2182 22.9767 18.8257 23.0012 18.3661C23.0257 17.9066 23.4181 17.5539 23.8777 17.5784C24.5301 17.6131 25.0558 17.6561 25.476 17.7005C26.713 17.8309 27.6997 18.7085 27.8479 20.0045C27.9323 20.7432 28 21.8092 28 23.3329C28 24.8567 27.9323 25.9227 27.8479 26.6613C27.6998 27.9566 26.7154 28.8346 25.4776 28.9652C24.4933 29.0691 22.9257 29.1663 20.5 29.1663C18.0743 29.1663 16.5067 29.0691 15.5224 28.9652C14.2846 28.8346 13.3002 27.9566 13.1521 26.6613C13.0677 25.9227 13 24.8567 13 23.3329C13 21.8092 13.0677 20.7432 13.1521 20.0045C13.3003 18.7085 14.287 17.8309 15.524 17.7005C15.9442 17.6561 16.4699 17.6131 17.1223 17.5784C17.5819 17.5539 17.9743 17.9066 17.9988 18.3661Z" fill="#777E91"/>
<path fill-rule="evenodd" clip-rule="evenodd" d="M18.1726 15.1723C17.8472 15.4977 17.3195 15.4977 16.9941 15.1723C16.6686 14.8468 16.6686 14.3192 16.9941 13.9938L19.9107 11.0771C20.2362 10.7516 20.7638 10.7516 21.0893 11.0771L24.0059 13.9938C24.3314 14.3192 24.3314 14.8468 24.0059 15.1723C23.6805 15.4977 23.1528 15.4977 22.8274 15.1723L21.3333 13.6782V21.6663C21.3333 22.1266 20.9602 22.4997 20.5 22.4997C20.0398 22.4997 19.6667 22.1266 19.6667 21.6663V13.6782L18.1726 15.1723Z" fill="#777E91"/>
<rect x="1.5" y="1" width="38" height="38" rx="19" stroke="#353945" stroke-width="2"/>
</svg>
