<svg width="26" height="28" viewBox="0 0 26 28" fill="none" xmlns="http://www.w3.org/2000/svg">
<path d="M4.31082 22.0207L4.81082 21.1547L4.31082 22.0207L10.7031 25.7113C12.2501 26.6045 14.1561 26.6045 15.7031 25.7113L22.0954 22.0207C23.6424 21.1276 24.5954 19.4769 24.5954 17.6906V10.3094C24.5954 8.52307 23.6424 6.87244 22.0954 5.97927L15.7031 2.28868C14.1561 1.39551 12.2501 1.39551 10.7031 2.28868L4.31082 5.97927C2.76382 6.87244 1.81082 8.52307 1.81082 10.3094V17.6906C1.81082 19.4769 2.76381 21.1276 4.31082 22.0207Z" fill="#45B36B" stroke="#141416" stroke-width="2"/>
<path d="M12.306 9.56368C12.4106 9.38071 12.2558 9.15841 12.0479 9.19305L11.0762 9.355C10.9277 9.37976 10.8346 9.52922 10.8778 9.67344L11.1805 10.6823C11.2436 10.8928 11.528 10.9253 11.637 10.7345L12.306 9.56368Z" fill="#141416"/>
<path d="M10.0173 10.296C9.96158 10.1102 9.72556 10.0567 9.59897 10.2037C9.20641 10.6594 8.83565 11.1383 8.4517 11.599C8.43034 11.6246 8.40995 11.6508 8.39055 11.6775C8.28643 11.8206 8.40472 12.0002 8.58173 12.0002H10.1926C10.3601 12.0002 10.4802 11.8388 10.432 11.6784L10.0173 10.296Z" fill="#141416"/>
<path d="M8.51229 13C8.34413 13 8.22473 13.1639 8.30893 13.3095C8.33595 13.3562 8.36571 13.4018 8.3982 13.4461L11.9948 18.3506C12.055 18.4326 12.1213 18.5064 12.1927 18.5719C12.348 18.7145 12.5427 18.5502 12.4806 18.3487L10.8867 13.1764C10.8544 13.0715 10.7575 13 10.6478 13H8.51229Z" fill="#141416"/>
<path d="M13.9259 18.3488C13.8638 18.5503 14.0584 18.7147 14.2138 18.5721C14.2852 18.5065 14.3517 18.4327 14.4119 18.3506L18.0085 13.4461C18.041 13.4018 18.0707 13.3562 18.0977 13.3095C18.1819 13.1639 18.0625 13 17.8944 13H15.7588C15.6491 13 15.5522 13.0715 15.5199 13.1764L13.9259 18.3488Z" fill="#141416"/>
<path d="M17.822 12.0003C17.999 12.0003 18.1173 11.8207 18.0132 11.6776C17.9938 11.6509 17.9734 11.6247 17.952 11.5991C17.5681 11.1383 17.1973 10.6595 16.8047 10.2037C16.6781 10.0567 16.4421 10.1102 16.3864 10.296L15.9716 11.6784C15.9235 11.8389 16.0436 12.0003 16.2111 12.0003H17.822Z" fill="#141416"/>
<path d="M15.3338 9.35502C15.4823 9.37977 15.5754 9.52923 15.5321 9.67345L15.2294 10.6824C15.1663 10.8928 14.8819 10.9254 14.7729 10.7346L14.1038 9.56369C13.9993 9.38071 14.1541 9.15841 14.362 9.19305L15.3338 9.35502Z" fill="#141416"/>
<path d="M13.2002 10.0078L14.1249 11.626C14.2201 11.7927 14.0998 12 13.9078 12H12.4926C12.3006 12 12.1803 11.7927 12.2755 11.626L13.2002 10.0078Z" fill="#141416"/>
<path d="M13.4424 16.5232C13.37 16.7586 13.0369 16.7586 12.9645 16.5232L11.98 13.3235C11.9305 13.1628 12.0507 13 12.2189 13H14.188C14.3562 13 14.4764 13.1628 14.4269 13.3235L13.4424 16.5232Z" fill="#141416"/>
</svg>
