<svg width="48" height="48" viewBox="0 0 48 48" fill="none" xmlns="http://www.w3.org/2000/svg">
<g filter="url(#filter0_d_231_14851)">
<rect x="8" width="32" height="32" rx="16" fill="#23262F"/>
<path fill-rule="evenodd" clip-rule="evenodd" d="M24.5796 11.7642C24.2572 12.0736 23.748 12.0736 23.4256 11.7642L22.8486 11.2105C22.1732 10.5624 21.2609 10.1667 20.2526 10.1667C18.1815 10.1667 16.5026 11.8456 16.5026 13.9167C16.5026 15.9022 17.5774 17.5417 19.1291 18.8888C20.682 20.237 22.5388 21.1312 23.6481 21.5876C23.8801 21.683 24.1251 21.683 24.3571 21.5876C25.4664 21.1312 27.3232 20.237 28.8761 18.8888C30.4278 17.5417 31.5026 15.9022 31.5026 13.9167C31.5026 11.8456 29.8237 10.1667 27.7526 10.1667C26.7443 10.1667 25.832 10.5624 25.1566 11.2105L24.5796 11.7642ZM24.0026 10.008C23.0294 9.074 21.708 8.5 20.2526 8.5C17.2611 8.5 14.8359 10.9251 14.8359 13.9167C14.8359 19.2235 20.6446 22.1542 23.0141 23.1289C23.6522 23.3914 24.353 23.3914 24.9911 23.1289C27.3607 22.1542 33.1693 19.2235 33.1693 13.9167C33.1693 10.9251 30.7441 8.5 27.7526 8.5C26.2972 8.5 24.9758 9.074 24.0026 10.008Z" fill="#777E91"/>
</g>
<defs>
<filter id="filter0_d_231_14851" x="0" y="0" width="48" height="48" filterUnits="userSpaceOnUse" color-interpolation-filters="sRGB">
<feFlood flood-opacity="0" result="BackgroundImageFix"/>
<feColorMatrix in="SourceAlpha" type="matrix" values="0 0 0 0 0 0 0 0 0 0 0 0 0 0 0 0 0 0 127 0" result="hardAlpha"/>
<feMorphology radius="8" operator="erode" in="SourceAlpha" result="effect1_dropShadow_231_14851"/>
<feOffset dy="8"/>
<feGaussianBlur stdDeviation="8"/>
<feColorMatrix type="matrix" values="0 0 0 0 0.0583333 0 0 0 0 0.0583333 0 0 0 0 0.0583333 0 0 0 0.2 0"/>
<feBlend mode="multiply" in2="BackgroundImageFix" result="effect1_dropShadow_231_14851"/>
<feBlend mode="normal" in="SourceGraphic" in2="effect1_dropShadow_231_14851" result="shape"/>
</filter>
</defs>
</svg>
